<?xml version="1.0" encoding="utf-8"?>
<!-- Generator: Adobe Illustrator 26.2.1, SVG Export Plug-In . SVG Version: 6.00 Build 0)  -->
<svg version="1.1" id="圖層_1" xmlns="http://www.w3.org/2000/svg" xmlns:xlink="http://www.w3.org/1999/xlink" x="0px" y="0px"
	 viewBox="0 0 27 27" style="enable-background:new 0 0 27 27;" xml:space="preserve">
<style type="text/css">
	.st0{fill:#FFFFFF;}
</style>
<path class="st0" d="M16.7,8.7l-6.4,6.4c-0.1,0.1-0.2,0.2-0.3,0.4C10,15.6,10,15.7,10,15.9s0,0.3,0.1,0.4c0.1,0.1,0.1,0.3,0.2,0.4
	c0.1,0.1,0.2,0.2,0.4,0.2C10.8,17,11,17,11.1,17c0.1,0,0.3,0,0.4-0.1c0.1-0.1,0.3-0.1,0.4-0.3l6.4-6.4c0.6-0.6,1-1.5,1-2.4
	s-0.4-1.8-1-2.4s-1.5-1-2.4-1c-0.9,0-1.8,0.4-2.4,1l-6.4,6.4c-0.5,0.5-1,1.1-1.2,1.8c-0.3,0.7-0.4,1.4-0.4,2.2
	c0,0.7,0.1,1.5,0.4,2.2c0.3,0.7,0.7,1.3,1.2,1.8c0.5,0.5,1.2,0.9,1.8,1.2c0.7,0.3,1.4,0.4,2.2,0.4c0.7,0,1.5-0.2,2.2-0.4
	c0.7-0.3,1.3-0.7,1.8-1.2l6.4-6.4l1.6,1.6l-6.4,6.4c-0.7,0.7-1.6,1.3-2.6,1.7c-1,0.4-2,0.6-3,0.6s-2.1-0.2-3-0.6
	c-1-0.4-1.8-1-2.6-1.7s-1.3-1.6-1.7-2.6c-0.4-1-0.6-2-0.6-3c0-1,0.2-2.1,0.6-3c0.4-1,1-1.8,1.7-2.6L11.9,4c1.1-1,2.5-1.6,4-1.6
	c1.5,0,2.9,0.6,3.9,1.6c1,1,1.6,2.5,1.6,3.9c0,1.5-0.6,2.9-1.6,4l-6.4,6.4c-0.3,0.3-0.7,0.6-1.1,0.7c-0.4,0.2-0.8,0.3-1.3,0.3
	c-0.4,0-0.9-0.1-1.3-0.3c-0.4-0.2-0.8-0.4-1.1-0.7C8.4,18,8.2,17.6,8,17.2c-0.2-0.4-0.3-0.8-0.3-1.3c0-0.4,0.1-0.9,0.3-1.3
	c0.2-0.4,0.4-0.8,0.7-1.1l6.4-6.4L16.7,8.7z"/>
</svg>
