<svg width="27" height="27" viewBox="0 0 27 27" fill="none" xmlns="http://www.w3.org/2000/svg">
<path d="M16.6815 8.72674L10.3185 15.0909C10.211 15.1946 10.1253 15.3188 10.0663 15.456C10.0074 15.5933 9.97635 15.7409 9.97505 15.8903C9.97375 16.0397 10.0022 16.1878 10.0588 16.3261C10.1153 16.4643 10.1989 16.5899 10.3045 16.6956C10.4101 16.8012 10.5357 16.8847 10.674 16.9413C10.8123 16.9979 10.9604 17.0263 11.1098 17.025C11.2592 17.0237 11.4068 16.9927 11.544 16.9337C11.6813 16.8748 11.8054 16.7891 11.9092 16.6816L18.2733 10.3186C18.9063 9.68563 19.2619 8.82711 19.2619 7.93193C19.2619 7.03675 18.9063 6.17823 18.2733 5.54524C17.6403 4.91225 16.7818 4.55664 15.8866 4.55664C14.9915 4.55664 14.1329 4.91225 13.5 5.54524L7.13583 11.9094C6.60267 12.4293 6.17804 13.0498 5.88658 13.7351C5.59513 14.4204 5.44264 15.1567 5.43798 15.9014C5.43331 16.6461 5.57656 17.3843 5.8594 18.0731C6.14225 18.762 6.55907 19.3879 7.08567 19.9144C7.61228 20.4409 8.2382 20.8577 8.92712 21.1404C9.61604 21.4232 10.3542 21.5663 11.0989 21.5615C11.8436 21.5568 12.5799 21.4042 13.2651 21.1126C13.9504 20.8211 14.5709 20.3964 15.0907 19.8631L21.4548 13.5001L23.0456 15.0909L16.6815 21.455C15.9502 22.1863 15.082 22.7664 14.1265 23.1622C13.171 23.5579 12.1469 23.7616 11.1127 23.7616C10.0785 23.7616 9.05441 23.5579 8.09892 23.1622C7.14343 22.7664 6.27526 22.1863 5.54396 21.455C4.81266 20.7237 4.23256 19.8555 3.83678 18.9C3.44101 17.9445 3.2373 16.9205 3.2373 15.8862C3.2373 14.852 3.44101 13.8279 3.83678 12.8725C4.23256 11.917 4.81266 11.0488 5.54396 10.3175L11.9092 3.95449C12.9701 2.92985 14.391 2.36288 15.8658 2.3757C17.3407 2.38852 18.7515 2.98009 19.7944 4.02301C20.8374 5.06593 21.4289 6.47675 21.4417 7.95161C21.4546 9.42647 20.8876 10.8474 19.863 11.9082L13.5 18.2746C13.1865 18.588 12.8143 18.8367 12.4047 19.0062C11.9951 19.1758 11.5562 19.2631 11.1129 19.2631C10.6696 19.263 10.2306 19.1756 9.82108 19.0059C9.41155 18.8362 9.03944 18.5876 8.72602 18.2741C8.41259 17.9606 8.16399 17.5884 7.99439 17.1788C7.8248 16.7692 7.73753 16.3303 7.73759 15.887C7.73764 15.4437 7.825 15.0047 7.9947 14.5952C8.16439 14.1856 8.41308 13.8135 8.72658 13.5001L15.0907 7.13599L16.6815 8.72674Z" fill="black"/>
</svg>
