<?xml version="1.0" encoding="utf-8"?>
<!-- Generator: Adobe Illustrator 26.2.1, SVG Export Plug-In . SVG Version: 6.00 Build 0)  -->
<svg version="1.1" id="圖層_1" xmlns="http://www.w3.org/2000/svg" xmlns:xlink="http://www.w3.org/1999/xlink" x="0px" y="0px"
	 viewBox="0 0 28 28" style="enable-background:new 0 0 28 28;" xml:space="preserve">
<style type="text/css">
	.st0{fill:#043460;}
</style>
<path class="st0" d="M0,14C1.2,7.4,7,2.4,14,2.4c7,0,12.8,5,14,11.6c-1.2,6.6-7,11.6-14,11.6C7,25.6,1.2,20.6,0,14z M14,20.5
	c1.7,0,3.4-0.7,4.6-1.9c1.2-1.2,1.9-2.9,1.9-4.6s-0.7-3.4-1.9-4.6c-1.2-1.2-2.9-1.9-4.6-1.9s-3.4,0.7-4.6,1.9
	c-1.2,1.2-1.9,2.9-1.9,4.6s0.7,3.4,1.9,4.6C10.6,19.8,12.3,20.5,14,20.5z M14,17.9c-1,0-2-0.4-2.7-1.1C10.5,16,10.1,15,10.1,14
	s0.4-2,1.1-2.7c0.7-0.7,1.7-1.1,2.7-1.1s2,0.4,2.7,1.1c0.7,0.7,1.1,1.7,1.1,2.7s-0.4,2-1.1,2.7C16,17.5,15,17.9,14,17.9z"/>
</svg>
