<?xml version="1.0" encoding="utf-8"?>
<!-- Generator: Adobe Illustrator 26.2.1, SVG Export Plug-In . SVG Version: 6.00 Build 0)  -->
<svg version="1.1" id="圖層_1" xmlns="http://www.w3.org/2000/svg" xmlns:xlink="http://www.w3.org/1999/xlink" x="0px" y="0px"
	 viewBox="0 0 50 50" style="enable-background:new 0 0 50 50;" xml:space="preserve">
<g transform="matrix(1 0 0 1 -772 -722 )">
	<path d="M795,759.9c0.1,0.2,0.4,0.2,0.5,0l18-17.8c0.1-0.1,0.1-0.2,0.1-0.3l-1.2-14.2c0-0.4-0.3-0.7-0.7-0.7l-14.3-1.2
		c-0.1,0-0.2,0-0.3,0.1l-18,17.8c-0.1,0.1-0.1,0.4,0,0.5L795,759.9z M801.4,738c-0.9-0.9-0.9-2.3,0-3.2c0.9-0.9,2.3-0.9,3.2,0
		c0.9,0.9,0.9,2.3,0,3.2C803.8,738.9,802.3,738.9,801.4,738z M814.9,748.7c0.1-0.1,0.1-0.4,0-0.5l-1.9-1.9c-0.1-0.1-0.4-0.1-0.5,0
		l-17.2,17L784,752.1c-0.1-0.1-0.4-0.1-0.5,0l-1.9,1.9c-0.1,0.1-0.1,0.4,0,0.5l11.6,11.4l1.9,1.9c0.1,0.1,0.4,0.1,0.5,0L814.9,748.7
		z"/>
</g>
</svg>
