<?xml version="1.0" encoding="utf-8"?>
<!-- Generator: Adobe Illustrator 26.2.1, SVG Export Plug-In . SVG Version: 6.00 Build 0)  -->
<svg version="1.1" id="圖層_1" xmlns="http://www.w3.org/2000/svg" xmlns:xlink="http://www.w3.org/1999/xlink" x="0px" y="0px"
	 viewBox="0 0 27 27" style="enable-background:new 0 0 27 27;" xml:space="preserve">
<style type="text/css">
	.st0{fill:#043460;}
</style>
<path class="st0" d="M2,25c-0.3,0-0.7-0.1-0.9-0.4c-0.2-0.2-0.4-0.6-0.4-0.9V3.3c0-0.3,0.1-0.7,0.4-0.9C1.3,2.2,1.7,2,2,2h9.4
	L14,4.6h9.7c0.3,0,0.7,0.1,0.9,0.4c0.2,0.2,0.4,0.6,0.4,0.9v3.8H3.3v12.7l2.5-10.2h21L23.9,24c-0.1,0.3-0.2,0.5-0.5,0.7
	S22.9,25,22.7,25H2z"/>
</svg>
