<?xml version="1.0" encoding="utf-8"?>
<!-- Generator: Adobe Illustrator 26.2.1, SVG Export Plug-In . SVG Version: 6.00 Build 0)  -->
<svg version="1.1" id="圖層_1" xmlns="http://www.w3.org/2000/svg" xmlns:xlink="http://www.w3.org/1999/xlink" x="0px" y="0px"
	 viewBox="0 0 28 28" style="enable-background:new 0 0 28 28;" xml:space="preserve">
<style type="text/css">
	.st0{fill:#FFFFFF;}
</style>
<path class="st0" d="M1.4,14C2.5,8,7.7,3.5,14,3.5C20.3,3.5,25.5,8,26.6,14c-1.1,6-6.3,10.5-12.6,10.5C7.7,24.5,2.5,20,1.4,14z
	 M14,19.8c1.5,0,3-0.6,4.1-1.7c1.1-1.1,1.7-2.6,1.7-4.1s-0.6-3-1.7-4.1C17,8.8,15.5,8.2,14,8.2s-3,0.6-4.1,1.7
	C8.8,11,8.2,12.5,8.2,14s0.6,3,1.7,4.1C11,19.2,12.5,19.8,14,19.8z M14,17.5c-0.9,0-1.8-0.4-2.5-1c-0.7-0.7-1-1.5-1-2.5
	s0.4-1.8,1-2.5c0.7-0.7,1.5-1,2.5-1s1.8,0.4,2.5,1c0.7,0.7,1,1.5,1,2.5s-0.4,1.8-1,2.5C15.8,17.1,14.9,17.5,14,17.5z"/>
</svg>
