<?xml version="1.0" encoding="utf-8"?>
<!-- Generator: Adobe Illustrator 26.3.1, SVG Export Plug-In . SVG Version: 6.00 Build 0)  -->
<svg version="1.1" id="圖層_1" xmlns="http://www.w3.org/2000/svg" xmlns:xlink="http://www.w3.org/1999/xlink" x="0px" y="0px"
	 viewBox="0 0 10 11" style="enable-background:new 0 0 10 11;" xml:space="preserve">
<path d="M9.2,10c-0.1,0-0.3,0-0.4-0.1L0.4,1.4c-0.2-0.2-0.2-0.5,0-0.7s0.5-0.2,0.7,0l8.5,8.5c0.2,0.2,0.2,0.5,0,0.7
	C9.4,9.9,9.3,10,9.2,10z"/>
<path d="M0.8,10c-0.1,0-0.3,0-0.4-0.1c-0.2-0.2-0.2-0.5,0-0.7l8.5-8.5c0.2-0.2,0.5-0.2,0.7,0s0.2,0.5,0,0.7L1.2,9.8
	C1.1,9.9,1,10,0.8,10z"/>
</svg>
