<svg width="28" height="28" viewBox="0 0 28 28" fill="none" xmlns="http://www.w3.org/2000/svg">
<path d="M1.37793 14C2.4746 8.02667 7.70943 3.5 14.0001 3.5C20.2908 3.5 25.5244 8.02667 26.6223 14C25.5256 19.9733 20.2908 24.5 14.0001 24.5C7.70943 24.5 2.47576 19.9733 1.37793 14ZM14.0001 19.8333C15.5472 19.8333 17.0309 19.2188 18.1249 18.1248C19.2188 17.0308 19.8334 15.5471 19.8334 14C19.8334 12.4529 19.2188 10.9692 18.1249 9.87521C17.0309 8.78125 15.5472 8.16667 14.0001 8.16667C12.453 8.16667 10.9693 8.78125 9.87531 9.87521C8.78135 10.9692 8.16676 12.4529 8.16676 14C8.16676 15.5471 8.78135 17.0308 9.87531 18.1248C10.9693 19.2188 12.453 19.8333 14.0001 19.8333ZM14.0001 17.5C13.0718 17.5 12.1816 17.1313 11.5252 16.4749C10.8688 15.8185 10.5001 14.9283 10.5001 14C10.5001 13.0717 10.8688 12.1815 11.5252 11.5251C12.1816 10.8687 13.0718 10.5 14.0001 10.5C14.9284 10.5 15.8186 10.8687 16.475 11.5251C17.1313 12.1815 17.5001 13.0717 17.5001 14C17.5001 14.9283 17.1313 15.8185 16.475 16.4749C15.8186 17.1313 14.9284 17.5 14.0001 17.5Z" fill="#043460"/>
</svg>
