<svg width="22" height="22" viewBox="0 0 22 22" fill="none" xmlns="http://www.w3.org/2000/svg">
<path d="M11.0001 0.166656C16.9833 0.166656 21.8334 5.01674 21.8334 11C21.8334 16.9832 16.9833 21.8333 11.0001 21.8333C5.01683 21.8333 0.166748 16.9832 0.166748 11H2.33341C2.33341 15.7862 6.21391 19.6667 11.0001 19.6667C15.7862 19.6667 19.6667 15.7862 19.6667 11C19.6667 6.21382 15.7862 2.33332 11.0001 2.33332C8.33075 2.33332 5.94308 3.54016 4.35383 5.43707L6.66675 7.74999H0.166748V1.24999L2.81766 3.89982C4.80341 1.61399 7.73275 0.166656 11.0001 0.166656ZM12.0834 5.58332V10.5504L15.5967 14.0637L14.0637 15.5966L9.91675 11.4474V5.58332H12.0834Z" fill="white"/>
</svg>
