<?xml version="1.0" encoding="utf-8"?>
<!-- Generator: Adobe Illustrator 26.2.1, SVG Export Plug-In . SVG Version: 6.00 Build 0)  -->
<svg version="1.1" id="圖層_1" xmlns="http://www.w3.org/2000/svg" xmlns:xlink="http://www.w3.org/1999/xlink" x="0px" y="0px"
	 viewBox="0 0 47.9 40.5" style="enable-background:new 0 0 47.9 40.5;" xml:space="preserve">
<style type="text/css">
	.st0{fill:url(#SVGID_1_);}
</style>
<linearGradient id="SVGID_1_" gradientUnits="userSpaceOnUse" x1="21.3071" y1="36.1" x2="21.3071" y2="-9.094947e-13">
	<stop  offset="0" style="stop-color:#1F82BA"/>
	<stop  offset="1" style="stop-color:#A0D4D4"/>
</linearGradient>
<path class="st0" d="M41.8,9.6l-3.4,26.5H27L23.6,9.5h14L40.4,0L42,0.5l-2.8,9.1H41.8L41.8,9.6z M22,25c0,0,0.4-3.4-5.5-3.4H7
	c-5.9,0-5.5,3.4-5.5,3.4H22z M1.5,32.7c0,0-0.4,3.4,5.5,3.4h9.5c5.9,0,5.5-3.4,5.5-3.4H1.5z M21.1,31c0.5-0.1,1-0.3,1.3-0.7
	s0.5-0.9,0.4-1.4c0-0.5-0.1-1-0.4-1.4s-0.8-0.7-1.3-0.7H2.3c-0.5,0.1-1,0.3-1.3,0.7s-0.5,0.9-0.4,1.4c0,0.5,0.1,1,0.4,1.4
	C1.3,30.7,1.8,31,2.3,31H21.1L21.1,31z"/>
</svg>
