<svg width="27" height="27" viewBox="0 0 27 27" fill="none" xmlns="http://www.w3.org/2000/svg">
<path d="M17.1272 17.4465L14.6375 22.6777C14.5904 22.7767 14.52 22.8626 14.4322 22.9282C14.3445 22.9938 14.2421 23.037 14.1339 23.0542C14.0257 23.0714 13.9149 23.0619 13.8112 23.0267C13.7074 22.9915 13.6138 22.9316 13.5384 22.8521L9.55365 18.6457C9.4472 18.5335 9.30541 18.4612 9.15203 18.441L3.40665 17.6895C3.2981 17.6752 3.19466 17.6347 3.10525 17.5715C3.01584 17.5083 2.94314 17.4243 2.89342 17.3268C2.84371 17.2292 2.81847 17.121 2.81988 17.0116C2.82129 16.9021 2.84931 16.7946 2.90153 16.6984L5.67128 11.6089C5.74491 11.4727 5.76953 11.3155 5.74103 11.1634L4.68015 5.46749C4.66001 5.35968 4.66644 5.24858 4.69888 5.14381C4.73133 5.03904 4.78882 4.94376 4.86637 4.86621C4.94393 4.78865 5.03921 4.73116 5.14398 4.69872C5.24875 4.66627 5.35984 4.65984 5.46765 4.67999L11.1635 5.74086C11.3156 5.76937 11.4729 5.74474 11.609 5.67111L16.6985 2.90136C16.7948 2.84913 16.9024 2.82113 17.012 2.81978C17.1215 2.81843 17.2298 2.84377 17.3273 2.89361C17.4249 2.94345 17.5089 3.01629 17.572 3.10584C17.6351 3.19539 17.6755 3.29897 17.6897 3.40761L18.4412 9.15186C18.4614 9.30525 18.5336 9.44703 18.6459 9.55349L22.8523 13.5382C22.9318 13.6136 22.9917 13.7073 23.0269 13.811C23.0621 13.9147 23.0715 14.0255 23.0544 14.1337C23.0372 14.2419 22.994 14.3443 22.9284 14.432C22.8628 14.5198 22.7768 14.5903 22.6779 14.6374L17.4467 17.127C17.3066 17.1936 17.1938 17.3064 17.1272 17.4465ZM18.0238 19.6144L19.6145 18.0236L24.3879 22.7959L22.796 24.3877L18.0238 19.6144Z" fill="white"/>
</svg>
