<svg width="27" height="23" viewBox="0 0 27 23" fill="none" xmlns="http://www.w3.org/2000/svg">
<path d="M2.441 0C1.79506 0.00471124 1.17692 0.2634 0.720159 0.720159C0.2634 1.17692 0.00471124 1.79506 0 2.441L0 20.341C0.00471124 20.9869 0.2634 21.6051 0.720159 22.0618C1.17692 22.5186 1.79506 22.7773 2.441 22.782H17.086C17.7319 22.7773 18.3501 22.5186 18.8068 22.0618C19.2636 21.6051 19.5223 20.9869 19.527 20.341V16.273H16.273V19.528H3.255V3.255H9.764V0H2.441ZM19.527 0V3.255C16.3512 3.26005 13.2883 4.43391 10.9226 6.55269C8.55682 8.67147 7.05374 11.5869 6.7 14.743C7.03526 13.3219 7.84186 12.0561 8.98841 11.152C10.135 10.2479 11.5539 9.75865 13.014 9.764H19.523V13.019L26.032 6.51L19.527 0Z" fill="black"/>
</svg>
