<?xml version="1.0" encoding="utf-8"?>
<!-- Generator: Adobe Illustrator 26.2.1, SVG Export Plug-In . SVG Version: 6.00 Build 0)  -->
<svg version="1.1" id="圖層_1" xmlns="http://www.w3.org/2000/svg" xmlns:xlink="http://www.w3.org/1999/xlink" x="0px" y="0px"
	 viewBox="0 0 51 45.9" style="enable-background:new 0 0 51 45.9;" xml:space="preserve">
<style type="text/css">
	.st0{fill:#A8A8A8;}
	.st1{fill:#F5F5F5;}
</style>
<path class="st0" d="M4.8,37.5V7.6c0-1.8,0.7-3.4,1.9-4.7C8,1.6,9.7,1,11.5,1h31c0.6,0,1.2,0.2,1.5,0.6c0.5,0.5,0.6,0.9,0.6,1.5v40
	c0,0.6-0.2,1.2-0.6,1.5c-0.5,0.5-0.9,0.6-1.5,0.6H12.7c-2,0-4-0.8-5.4-2.2C5.7,41.6,4.8,39.5,4.8,37.5L4.8,37.5z M40.3,40.8v-6.6
	H12.7c-0.8,0-1.8,0.4-2.4,0.9c-0.6,0.6-0.9,1.4-0.9,2.4c0,0.9,0.4,1.8,0.9,2.4c0.6,0.6,1.4,0.9,2.4,0.9H40.3z M20.3,5.4h-8.9
	c-0.6,0-1.2,0.2-1.5,0.6C9.6,6.4,9.3,7,9.3,7.6v22.9c1.1-0.5,2.1-0.7,3.3-0.7h27.7V5.4H36v17.7l-7.8-4.5l-7.8,4.5V5.4z"/>
<g>
	<path class="st1" d="M2,45c-0.3,0-0.7-0.1-0.8-0.4c-0.3-0.4-0.3-1.1,0.2-1.4L49.3,2.3C49.8,2,50.4,2,50.7,2.5
		c0.3,0.4,0.3,1.1-0.2,1.4L2.6,44.8C2.4,44.9,2.2,45,2,45z"/>
	<path class="st0" d="M2,43.6c-0.4,0-1-0.2-1.3-0.7c-0.5-0.7-0.4-1.7,0.2-2.3L47.5,1.2c0.8-0.5,1.7-0.4,2.3,0.3
		c0.5,0.7,0.4,1.7-0.2,2.3L3,43.3C2.6,43.5,2.3,43.6,2,43.6z"/>
</g>
</svg>
