<svg width="25" height="25" viewBox="0 0 25 25" fill="none" xmlns="http://www.w3.org/2000/svg">
<path d="M12.5 25C19.4036 25 25 19.4036 25 12.5C25 5.59644 19.4036 0 12.5 0C5.59644 0 0 5.59644 0 12.5C0 19.4036 5.59644 25 12.5 25Z" fill="#45C0A6"/>
<path d="M16.052 13.289C14.8285 13.3198 13.6225 13.5877 12.501 14.078C11.3808 13.584 10.1741 13.3159 8.95005 13.289C7.23805 13.289 3.82104 14.141 3.82104 15.854V18.024H21.181V15.854C21.181 14.141 17.764 13.289 16.052 13.289ZM12.895 16.84H5.00404V15.854C5.00404 15.428 7.02005 14.476 8.94905 14.476C10.878 14.476 12.895 15.431 12.895 15.857V16.84ZM19.995 16.84H14.079V15.854C14.0684 15.4929 13.922 15.149 13.669 14.891C14.4362 14.6266 15.2407 14.4865 16.052 14.476C17.977 14.476 19.998 15.431 19.998 15.857L19.995 16.84ZM8.94905 12.5C9.49532 12.5 10.0293 12.338 10.4835 12.0345C10.9377 11.731 11.2918 11.2997 11.5008 10.795C11.7098 10.2903 11.7645 9.73494 11.658 9.19916C11.5514 8.66338 11.2883 8.17124 10.9021 7.78497C10.5158 7.3987 10.0237 7.13564 9.48788 7.02907C8.95211 6.9225 8.39676 6.97719 7.89207 7.18624C7.38738 7.39529 6.95602 7.74931 6.65253 8.20351C6.34903 8.65772 6.18705 9.19173 6.18705 9.738C6.18784 10.4703 6.47909 11.1723 6.99689 11.6902C7.5147 12.208 8.21676 12.4992 8.94905 12.5ZM8.94905 8.16C9.26114 8.16 9.56623 8.25255 9.82573 8.42594C10.0852 8.59933 10.2875 8.84578 10.4069 9.13412C10.5264 9.42247 10.5576 9.73975 10.4967 10.0459C10.4358 10.352 10.2855 10.6331 10.0649 10.8538C9.84417 11.0745 9.563 11.2248 9.2569 11.2857C8.9508 11.3466 8.63351 11.3153 8.34517 11.1959C8.05683 11.0764 7.81038 10.8742 7.63699 10.6147C7.46359 10.3552 7.37105 10.0501 7.37105 9.738C7.37236 9.31989 7.53904 8.91929 7.83469 8.62364C8.13033 8.32799 8.53094 8.16132 8.94905 8.16ZM16.049 12.5C16.5953 12.5 17.1293 12.338 17.5835 12.0345C18.0377 11.731 18.3918 11.2997 18.6008 10.795C18.8098 10.2903 18.8645 9.73494 18.758 9.19916C18.6514 8.66338 18.3883 8.17124 18.0021 7.78497C17.6158 7.3987 17.1237 7.13564 16.5879 7.02907C16.0521 6.9225 15.4968 6.97719 14.9921 7.18624C14.4874 7.39529 14.056 7.74931 13.7525 8.20351C13.449 8.65772 13.287 9.19173 13.287 9.738C13.2878 10.4708 13.5795 11.1733 14.098 11.6912C14.6164 12.2091 15.3192 12.5 16.052 12.5H16.049ZM16.049 8.16C16.3611 8.16 16.6662 8.25255 16.9257 8.42594C17.1852 8.59933 17.3875 8.84578 17.5069 9.13412C17.6264 9.42247 17.6576 9.73975 17.5967 10.0459C17.5358 10.352 17.3855 10.6331 17.1649 10.8538C16.9442 11.0745 16.663 11.2248 16.3569 11.2857C16.0508 11.3466 15.7335 11.3153 15.4452 11.1959C15.1568 11.0764 14.9104 10.8742 14.737 10.6147C14.5636 10.3552 14.471 10.0501 14.471 9.738C14.4724 9.31937 14.6395 8.91832 14.9358 8.62259C15.232 8.32685 15.6334 8.16053 16.052 8.16H16.049Z" fill="white"/>
</svg>
