<?xml version="1.0" encoding="utf-8"?>
<!-- Generator: Adobe Illustrator 26.2.1, SVG Export Plug-In . SVG Version: 6.00 Build 0)  -->
<svg version="1.1" id="圖層_1" xmlns="http://www.w3.org/2000/svg" xmlns:xlink="http://www.w3.org/1999/xlink" x="0px" y="0px"
	 viewBox="0 0 47.9 40.5" style="enable-background:new 0 0 47.9 40.5;" xml:space="preserve">
<style type="text/css">
	.st0{fill:#A8A8A8;}
	.st1{fill:#F5F5F5;}
</style>
<path class="st0" d="M41.8,9.6l-3.4,26.5H27L23.6,9.5h14L40.4,0L42,0.5l-2.8,9.1H41.8L41.8,9.6z M22,25c0,0,0.4-3.4-5.5-3.4H7
	c-5.9,0-5.5,3.4-5.5,3.4H22z M1.5,32.7c0,0-0.4,3.4,5.5,3.4h9.5c5.9,0,5.5-3.4,5.5-3.4H1.5z M21.1,31c0.5-0.1,1-0.3,1.3-0.7
	s0.5-0.9,0.4-1.4c0-0.5-0.1-1-0.4-1.4s-0.8-0.7-1.3-0.7H2.3c-0.5,0.1-1,0.3-1.3,0.7s-0.5,0.9-0.4,1.4c0,0.5,0.1,1,0.4,1.4
	C1.3,30.7,1.8,31,2.3,31H21.1L21.1,31z"/>
<path class="st1" d="M1.5,40.5c-0.3,0-0.6-0.1-0.7-0.4c-0.3-0.4-0.3-1,0.2-1.3L46.5,2.8c0.4-0.3,1-0.3,1.3,0.2
	c0.3,0.4,0.3,1-0.2,1.3L2.1,40.3C1.9,40.4,1.7,40.5,1.5,40.5z"/>
<path class="st0" d="M1.5,39.3c-0.4,0-0.9-0.2-1.2-0.6c-0.5-0.6-0.4-1.5,0.2-2L44.1,1.8c0.7-0.5,1.5-0.4,2,0.3
	c0.5,0.6,0.4,1.5-0.2,2L2.3,39C2.1,39.2,1.8,39.3,1.5,39.3z"/>
</svg>
