<svg width="25" height="25" viewBox="0 0 25 25" fill="none" xmlns="http://www.w3.org/2000/svg">
<path d="M12.5 25C19.4036 25 25 19.4036 25 12.5C25 5.59644 19.4036 0 12.5 0C5.59644 0 0 5.59644 0 12.5C0 19.4036 5.59644 25 12.5 25Z" fill="url(#paint0_linear_201_2983)"/>
<path d="M12.7971 20.7311C11.2127 20.731 9.66459 20.2575 8.35133 19.3712C7.03807 18.4849 6.01964 17.2264 5.42679 15.7572C4.83394 14.288 4.69372 12.6751 5.02412 11.1256C5.35452 9.57608 6.14047 8.16069 7.28108 7.06108C7.40343 6.94689 7.56575 6.88535 7.73305 6.88972C7.90035 6.89408 8.05924 6.96402 8.17546 7.08444C8.29169 7.20486 8.35594 7.36612 8.35437 7.53348C8.3528 7.70083 8.28554 7.86086 8.16708 7.97908C7.07165 9.03442 6.36984 10.4325 6.17802 11.9414C5.98619 13.4504 6.31589 14.9796 7.11243 16.2754C7.90897 17.5713 9.1245 18.5559 10.5575 19.0661C11.9904 19.5764 13.5547 19.5815 14.991 19.0806C16.4273 18.5798 17.6492 17.603 18.4542 16.3124C19.2592 15.0218 19.5988 13.4948 19.4169 11.9846C19.2349 10.4745 18.5422 9.07186 17.4537 8.00939C16.3652 6.94692 14.9462 6.28842 13.4321 6.14308V8.63008C13.4321 8.79982 13.3647 8.96261 13.2446 9.08263C13.1246 9.20266 12.9618 9.27008 12.7921 9.27008C12.6223 9.27008 12.4596 9.20266 12.3395 9.08263C12.2195 8.96261 12.1521 8.79982 12.1521 8.63008V5.47508C12.1519 5.391 12.1684 5.30772 12.2005 5.23001C12.2326 5.1523 12.2798 5.0817 12.3392 5.02224C12.3987 4.96279 12.4693 4.91565 12.547 4.88353C12.6247 4.85142 12.708 4.83495 12.7921 4.83508C14.9006 4.83508 16.9227 5.67267 18.4136 7.16358C19.9045 8.6545 20.7421 10.6766 20.7421 12.7851C20.7421 14.8936 19.9045 16.9157 18.4136 18.4066C16.9227 19.8975 14.9006 20.7351 12.7921 20.7351L12.7971 20.7311Z" fill="white"/>
<path d="M9.61514 9.04408L13.5691 11.8851C13.8008 12.0792 13.9506 12.3536 13.9887 12.6534C14.0268 12.9533 13.9504 13.2564 13.7747 13.5023C13.599 13.7482 13.337 13.9188 13.041 13.9799C12.745 14.0411 12.4369 13.9883 12.1781 13.8321C12.0703 13.756 11.9762 13.662 11.9001 13.5541L9.05914 9.60008C9.00646 9.52308 8.98234 9.43009 8.99097 9.33719C8.99961 9.24429 9.04044 9.15733 9.10642 9.09136C9.17239 9.02538 9.25935 8.98455 9.35225 8.97591C9.44515 8.96728 9.53814 8.9914 9.61514 9.04408Z" fill="white"/>
<defs>
<linearGradient id="paint0_linear_201_2983" x1="20.8" y1="2.05" x2="5.575" y2="19.925" gradientUnits="userSpaceOnUse">
<stop stop-color="#FFBA00"/>
<stop offset="1" stop-color="#FFD769"/>
</linearGradient>
</defs>
</svg>
