<?xml version="1.0" encoding="utf-8"?>
<!-- Generator: Adobe Illustrator 26.2.1, SVG Export Plug-In . SVG Version: 6.00 Build 0)  -->
<svg version="1.1" id="Capa_1" xmlns="http://www.w3.org/2000/svg" xmlns:xlink="http://www.w3.org/1999/xlink" x="0px" y="0px"
	 viewBox="0 0 330 330" style="enable-background:new 0 0 330 330;" xml:space="preserve">
<style type="text/css">
	.st0{fill:url(#SVGID_1_);}
	.st1{fill:url(#SVGID_00000096779706390447183710000012943174209376423331_);}
	.st2{fill:url(#SVGID_00000117667175310789832880000001124302609384037792_);}
</style>
<g>
	<linearGradient id="SVGID_1_" gradientUnits="userSpaceOnUse" x1="165" y1="320.6703" x2="165" y2="7.7919">
		<stop  offset="0" style="stop-color:#1F82BA"/>
		<stop  offset="1" style="stop-color:#A0D4D4"/>
	</linearGradient>
	<path class="st0" d="M165,0C74,0,0,74,0,165s74,165,165,165s165-74,165-165S256,0,165,0z M165,300c-74.4,0-135-60.6-135-135
		S90.6,30,165,30s135,60.6,135,135S239.4,300,165,300z"/>
	
		<linearGradient id="SVGID_00000012439092136631374850000016266363328564492188_" gradientUnits="userSpaceOnUse" x1="164.998" y1="136.5391" x2="164.998" y2="96.5391">
		<stop  offset="0" style="stop-color:#1F82BA"/>
		<stop  offset="1" style="stop-color:#A0D4D4"/>
	</linearGradient>
	<path style="fill:url(#SVGID_00000012439092136631374850000016266363328564492188_);" d="M165,70c-11,0-20,9-20,20c0,11,9,20,20,20
		s20-9,20-20C185,79,176,70,165,70z"/>
	
		<linearGradient id="SVGID_00000009582999827200388110000006720827356784586911_" gradientUnits="userSpaceOnUse" x1="165" y1="267.0273" x2="165" y2="147.0273">
		<stop  offset="0" style="stop-color:#1F82BA"/>
		<stop  offset="0.6702" style="stop-color:#79BBCC"/>
		<stop  offset="1" style="stop-color:#A0D4D4"/>
	</linearGradient>
	<path style="fill:url(#SVGID_00000009582999827200388110000006720827356784586911_);" d="M165,140c-8.3,0-15,6.7-15,15v90
		c0,8.3,6.7,15,15,15s15-6.7,15-15v-90C180,146.7,173.3,140,165,140z"/>
</g>
</svg>
