<?xml version="1.0" encoding="utf-8"?>
<!-- Generator: Adobe Illustrator 26.2.1, SVG Export Plug-In . SVG Version: 6.00 Build 0)  -->
<svg version="1.1" id="圖層_1" xmlns="http://www.w3.org/2000/svg" xmlns:xlink="http://www.w3.org/1999/xlink" x="0px" y="0px"
	 viewBox="0 0 51 45.9" style="enable-background:new 0 0 51 45.9;" xml:space="preserve">
<style type="text/css">
	.st0{fill:url(#SVGID_1_);}
</style>
<linearGradient id="SVGID_1_" gradientUnits="userSpaceOnUse" x1="24.7201" y1="0.9786" x2="24.7201" y2="45.2214">
	<stop  offset="0" style="stop-color:#A0D5D5"/>
	<stop  offset="1" style="stop-color:#1F82BA"/>
</linearGradient>
<path class="st0" d="M4.8,37.5V7.6c0-1.8,0.7-3.4,1.9-4.7C8,1.6,9.7,1,11.5,1h31c0.6,0,1.2,0.2,1.5,0.6c0.5,0.5,0.6,0.9,0.6,1.5v40
	c0,0.6-0.2,1.2-0.6,1.5c-0.5,0.5-0.9,0.6-1.5,0.6H12.7c-2,0-4-0.8-5.4-2.2C5.7,41.6,4.8,39.5,4.8,37.5L4.8,37.5z M40.3,40.8v-6.6
	H12.7c-0.8,0-1.8,0.4-2.4,0.9c-0.6,0.6-0.9,1.4-0.9,2.4c0,0.9,0.4,1.8,0.9,2.4c0.6,0.6,1.4,0.9,2.4,0.9H40.3z M20.3,5.4h-8.9
	c-0.6,0-1.2,0.2-1.5,0.6C9.6,6.4,9.3,7,9.3,7.6v22.9c1.1-0.5,2.1-0.7,3.3-0.7h27.7V5.4H36v17.7l-7.8-4.5l-7.8,4.5V5.4z"/>
</svg>
