<?xml version="1.0" encoding="utf-8"?>
<svg version="1.1" xmlns:xlink="http://www.w3.org/1999/xlink" width="40px" height="45px" xmlns="http://www.w3.org/2000/svg">
  <g transform="matrix(1 0 0 1 -1262 -738 )">
    <path d="M 14.204545454545453 24.2578125  C 14.204545454545453 24.837890625000004  13.725142045454547 25.3125  13.139204545454547 25.3125  L 9.588068181818182 25.3125  C 9.002130681818182 25.3125  8.522727272727273 24.837890625000004  8.522727272727273 24.2578125  L 8.522727272727273 20.7421875  C 8.522727272727273 20.162109375  9.002130681818182 19.6875  9.588068181818182 19.6875  L 13.139204545454547 19.6875  C 13.725142045454547 19.6875  14.204545454545453 20.162109375  14.204545454545453 20.7421875  L 14.204545454545453 24.2578125  Z M 21.661931818181817 25.3125  C 22.247869318181817 25.3125  22.72727272727273 24.837890625000004  22.72727272727273 24.2578125  L 22.72727272727273 20.7421875  C 22.72727272727273 20.162109375  22.247869318181817 19.6875  21.661931818181817 19.6875  L 18.110795454545453 19.6875  C 17.524857954545453 19.6875  17.045454545454547 20.162109375  17.045454545454547 20.7421875  L 17.045454545454547 24.2578125  C 17.045454545454547 24.837890625000004  17.524857954545453 25.3125  18.110795454545453 25.3125  L 21.661931818181817 25.3125  Z M 30.184659090909093 25.3125  C 30.770596590909093 25.3125  31.25 24.837890625000004  31.25 24.2578125  L 31.25 20.7421875  C 31.25 20.162109375  30.770596590909093 19.6875  30.184659090909093 19.6875  L 26.63352272727273 19.6875  C 26.04758522727273 19.6875  25.568181818181817 20.162109375  25.568181818181817 20.7421875  L 25.568181818181817 24.2578125  C 25.568181818181817 24.837890625000004  26.04758522727273 25.3125  26.63352272727273 25.3125  L 30.184659090909093 25.3125  Z M 21.661931818181817 33.75  C 22.247869318181817 33.75  22.72727272727273 33.275390625  22.72727272727273 32.6953125  L 22.72727272727273 29.1796875  C 22.72727272727273 28.599609374999996  22.247869318181817 28.125  21.661931818181817 28.125  L 18.110795454545453 28.125  C 17.524857954545453 28.125  17.045454545454547 28.599609374999996  17.045454545454547 29.1796875  L 17.045454545454547 32.6953125  C 17.045454545454547 33.275390625  17.524857954545453 33.75  18.110795454545453 33.75  L 21.661931818181817 33.75  Z M 13.139204545454547 33.75  C 13.725142045454547 33.75  14.204545454545453 33.275390625  14.204545454545453 32.6953125  L 14.204545454545453 29.1796875  C 14.204545454545453 28.599609374999996  13.725142045454547 28.125  13.139204545454547 28.125  L 9.588068181818182 28.125  C 9.002130681818182 28.125  8.522727272727273 28.599609374999996  8.522727272727273 29.1796875  L 8.522727272727273 32.6953125  C 8.522727272727273 33.275390625  9.002130681818182 33.75  9.588068181818182 33.75  L 13.139204545454547 33.75  Z M 30.184659090909093 33.75  C 30.770596590909093 33.75  31.25 33.275390625  31.25 32.6953125  L 31.25 29.1796875  C 31.25 28.599609374999996  30.770596590909093 28.125  30.184659090909093 28.125  L 26.63352272727273 28.125  C 26.04758522727273 28.125  25.568181818181817 28.599609374999996  25.568181818181817 29.1796875  L 25.568181818181817 32.6953125  C 25.568181818181817 33.275390625  26.04758522727273 33.75  26.63352272727273 33.75  L 30.184659090909093 33.75  Z M 35.51136363636364 5.625  C 37.86399147727273 5.625  39.77272727272727 7.5146484375  39 9.84375  L 39 40.78125  C 39.77272727272727 43.1103515625  37.86399147727273 45  35.51136363636364 45  L 4.261363636363637 45  C 1.9087357954545456 45  0 43.1103515625  0 40.78125  L 0 9.84375  C 0 7.5146484375  1.9087357954545456 5.625  4.261363636363637 5.625  L 8.522727272727273 5.625  L 8.522727272727273 1.0546875  C 8.522727272727273 0.47460937500000006  9.002130681818182 0  9.588068181818182 0  L 13.139204545454547 0  C 13.725142045454547 0  14.204545454545453 0.47460937500000006  14.204545454545453 1.0546875  L 14.204545454545453 6  L 25.568181818181817 6  L 25.568181818181817 1.0546875  C 25.568181818181817 0.47460937500000006  26.04758522727273 0  26.63352272727273 0  L 30.184659090909093 0  C 30.770596590909093 0  31.25 0.47460937500000006  31.25 1.0546875  L 31.25 5.625  L 35.51136363636364 5.625  Z M 34.97869318181819 40  C 35.27166193181819 40.78125  35.51136363636364 40.5439453125  35 40.25390625  L 35 14  L 5 14  L 5 40.25390625  C 4.261363636363637 40.5439453125  4.501065340909091 40.78125  4.794034090909091 40  L 34.97869318181819 40  Z " fill-rule="nonzero" fill="#b9b9b9" stroke="none" transform="matrix(1 0 0 1 1262 738 )" />
  </g>
</svg>