<?xml version="1.0" encoding="utf-8"?>
<svg version="1.1" xmlns:xlink="http://www.w3.org/1999/xlink" width="40px" height="40px" xmlns="http://www.w3.org/2000/svg">
  <g transform="matrix(1 0 0 1 -1380 -740 )">
    <path d="M 40 20  C 40 8.950000000000003  31.04 0  19.99 0  C 8.94 0  0 8.95  0 20  C 0 31.049999999999997  8.94 40  19.99 40  C 31.04 40  40 31.049999999999997  40 20  Z M 36 20  C 36 28.840000000000003  28.840000000000003 36  20 36  C 11.16 36  4 28.840000000000003  4 20  C 4 11.159999999999997  11.16 4  20 4  C 28.840000000000003 4  36 11.16  36 20  Z M 21 20.5  L 21 10  L 18 10  L 18 22  L 28.490000000000002 28.299999999999997  L 30 25.84  L 21 20.5  Z " fill-rule="nonzero" fill="#b9b9b9" stroke="none" transform="matrix(1 0 0 1 1380 740 )" />
  </g>
</svg>