<?xml version="1.0" encoding="utf-8"?>
<svg version="1.1" xmlns:xlink="http://www.w3.org/1999/xlink" width="36px" height="30px" xmlns="http://www.w3.org/2000/svg">
  <g transform="matrix(1 0 0 1 -1498 -515 )">
    <path d="M 0 0.375  L 36 0.375  L 36 3  L 0 3  L 0 0.375  Z M 27 7.125  L 27 9.375  L 0 9.375  L 0 7.125  L 27 7.125  Z M 36 14  L 36 16  L 0 16  L 0 14  L 36 14  Z M 27 20.625  L 27 22.875  L 0 22.875  L 0 20.625  L 27 20.625  Z M 36 27  L 36 29.625  L 0 29.625  L 0 27  L 36 27  Z " fill-rule="nonzero" fill="#b9b9b9" stroke="none" transform="matrix(1 0 0 1 1498 515 )" />
  </g>
</svg>