<?xml version="1.0" encoding="utf-8"?>
<!-- Generator: Adobe Illustrator 26.2.1, SVG Export Plug-In . SVG Version: 6.00 Build 0)  -->
<svg version="1.1" id="圖層_1" xmlns="http://www.w3.org/2000/svg" xmlns:xlink="http://www.w3.org/1999/xlink" x="0px" y="0px"
	 viewBox="0 0 78 70" style="enable-background:new 0 0 78 70;" xml:space="preserve">
<style type="text/css">
	.st0{fill:#CCCCCC;}
</style>
<g transform="matrix(1 0 0 1 -525 -351 )">
	<path class="st0" d="M586.9,420h-45.8c-4.6,0.5-8.3-3.3-8.3-7.8v-5c-3.7-1.6-6.2-5.3-6.2-9.5s2.6-7.9,6.2-9.5V379
		c0-17.4,14.1-27,31.2-27c17.4,0,31.2,9.8,31.2,27v9.2c3.7,1.6,6.2,5.3,6.2,9.5s-2.6,7.9-6.2,9.5v5
		C595.2,416.7,591.5,420.5,586.9,420z M564,358.3c-13.1,0-23.8,6.3-24.9,18.7h49.8C587.8,364.6,577.1,358.3,564,358.3z M555.7,369.7
		c0,1.7-1.4,3.1-3.1,3.1s-3.1-1.4-3.1-3.1s1.4-3.1,3.1-3.1S555.7,368,555.7,369.7z M567.1,369.7c0,1.7-1.4,3.1-3.1,3.1
		s-3.1-1.4-3.1-3.1s1.4-3.1,3.1-3.1S567.1,368,567.1,369.7z M578.6,369.7c0,1.7-1.4,3.1-3.1,3.1s-3.1-1.4-3.1-3.1s1.4-3.1,3.1-3.1
		S578.6,368,578.6,369.7z M559.8,387c0,0.3-0.9,10.7,7.4,10.7c8.2,0,7.2-10.4,7.2-10.7H589v-3H539v3H559.8z M532.8,397.7
		c0,2.3,1.9,4.1,4.2,3.3h22.2c-2.1-0.8-3.7-2.9-5-8H537C534.7,393.5,532.8,395.4,532.8,397.7z M580.1,393c-1.3,5.3-3,7.4-5,8H591
		c2.3,0.8,4.2-1.1,4.2-3.3c0-2.3-1.9-4.1-4.2-4.7H580.1z M539,412.2c0,1.2,0.9,2.1,2.1,1.8h45.8c1.2,0.3,2.1-0.7,2.1-1.8V408H539
		V412.2z"/>
</g>
</svg>
