<?xml version="1.0" encoding="utf-8"?>
<!-- Generator: Adobe Illustrator 26.3.1, SVG Export Plug-In . SVG Version: 6.00 Build 0)  -->
<svg version="1.1" id="圖層_1" xmlns="http://www.w3.org/2000/svg" xmlns:xlink="http://www.w3.org/1999/xlink" x="0px" y="0px"
	 viewBox="0 0 542 656" style="enable-background:new 0 0 542 656;" xml:space="preserve">
<style type="text/css">
	.st0{fill:#F6B989;}
	.st1{fill:#C1D357;}
	.st2{fill:#B7AFD8;stroke:#FFFFFF;stroke-width:2;stroke-linecap:round;stroke-linejoin:round;}
	.st3{fill:#F3ADB2;stroke:#FFFFFF;stroke-width:2;stroke-linecap:round;stroke-linejoin:round;}
	.st4{fill:none;stroke:#FFFFFF;stroke-width:2;stroke-linecap:round;stroke-linejoin:round;}
	.st5{fill:url(#SVGID_1_);stroke:#FFFFFF;stroke-width:2;stroke-linecap:round;stroke-linejoin:round;}
	.st6{fill:#C1D357;stroke:#FFFFFF;stroke-width:2;stroke-linecap:round;stroke-linejoin:round;}
	.st7{fill:#F6B989;stroke:#FFFFFF;stroke-width:2;stroke-linecap:round;stroke-linejoin:round;}
	.st8{fill:#9BC2D7;stroke:#FFFFFF;stroke-width:2;stroke-linecap:round;stroke-linejoin:round;}
	.st9{fill:#B77788;}
	.st10{fill:#FFFFFF;}
	.st11{fill:#8D9358;}
	.st12{fill:#C47947;}
	.st13{fill:#5297AF;}
	.st14{fill:#837DBA;}
</style>
<g>
	<g>
		<path class="st0" d="M226.2,568.7l-2.5,4c0,0-1,2,0.5,3c0,0,1,0,2.5-2c0,0,4.5-3.5,3-4C229.7,569.7,229.2,567.3,226.2,568.7z"/>
		<path class="st0" d="M224.2,576.2H224l-0.1-0.1c-1.5-1-1.1-2.8-0.7-3.6l2.6-4.2l0.1-0.1c0.7-0.4,1.4-0.5,1.9-0.5
			c1.3,0,2,1,2.2,1.6c0.3,0.2,0.3,0.4,0.4,0.6c0.2,1.1-2,3-3.4,4.1C225.5,576.1,224.4,576.2,224.2,576.2z M226.5,569.1l-2.4,3.9
			c0,0-0.7,1.4,0.2,2.2c0.3-0.1,1-0.5,2-1.8l0.1-0.1c1.6-1.2,2.9-2.6,3.1-3.1l-0.2-0.1l-0.1-0.3c0-0.1-0.3-1.1-1.3-1.1
			C227.5,568.8,227,568.9,226.5,569.1z"/>
	</g>
</g>
<g>
	<g>
		<path class="st1" d="M430.6,482.2l1.5,4c0,0,2.5,2,4.5,2v-3l1-3v-3l-2,1C435.6,480.2,430.6,478.7,430.6,482.2z"/>
		<path class="st1" d="M437,488.7h-0.5c-2.1,0-4.7-2-4.8-2.1l-0.1-0.1l-1.6-4.2v-0.1c0-1.8,1.2-2.8,3.3-2.8c0.9,0,1.8,0.2,2.2,0.3
			l2.5-1.3v3.9l-1,3V488.7z M432.5,485.9c0.4,0.3,2.1,1.5,3.6,1.8v-2.5l1-3V480l-1.4,0.7l-0.2-0.1c0,0-1-0.3-2.1-0.3
			c-2,0-2.3,1-2.3,1.7L432.5,485.9z"/>
	</g>
</g>
<path class="st2" d="M38.1,12.9h1.1l1.6,0.6h0.7c0,0,0.6-0.8,0.8,0s0.8,1.7,0.8,1.7v1.6c0,0,0.8-0.6,1.2,0s1.9,0,1.9,0
	s0.8,0.4,1.2,0.2c0.4-0.1,1.4,0,1.4,0s2-1.2,2.7-0.5c0.7,0.7,0,1.6,0,1.6s0.4,0.3,0.3,0.7c-0.1,0.3-0.7,0.7-0.7,0.7h-1.7h-0.8V20
	l0.2,0.7c0,0,0.2,0.6,0,0.9S48,22.3,48,22.3s-0.2,0.6-0.3,1s-0.6,0.8-0.6,1.1c0,0.3-0.3,1-0.4,1.3c-0.1,0.3-0.3,0.8-0.4,1.2
	c-0.1,0.3-0.8,1.6-0.8,1.6L45,29.3c0,0,0.3-0.2,0.7,0s3.1,0,3.1,0s1-0.2,1.7,0.1c0.7,0.3,0.8,0,1.3,0s0.7-0.5,1-0.7
	c0.3-0.1,1-0.6,1.3-0.4c0.3,0.1,0,1.3,0,1.3l0.7,0.8v0.9h-0.7l0.7,1.1l1-0.6c0,0,0.8-0.4,1.1-0.3s1-0.1,1-0.1l0.6,0.2
	c0,0,0.4,0.3,0,0.8c-0.4,0.4-0.9,1-0.9,1v1l1.1,1.1v0.9l1,1.3c0,0-0.6,0.6,0,0.6s0.3,0.7,0.6,0c0.2-0.7,0-1.7,0-1.7
	s-0.1-0.9,0.6-1.1c0.7-0.2,0.7-0.2,0.7-0.2s1.1-0.4,1.4-0.7c0.3-0.2,0-0.6,0.8-0.7c0.8-0.2,0.9,0.3,1.3,0s0.8,0.6,1.2,0
	c0.4-0.6,0.4-0.6,0.4-0.6v-0.8c0,0-0.1-0.6,0-0.9s0.1-0.3,0.1-0.3V30v-1c0,0-0.7-0.1-0.6-0.8c0.1-0.7,0.1-0.7,0.1-0.7l0,0
	c0,0-0.3-0.4,0.4-0.8c0.8-0.3,0.2,0.3,0.8-0.3c0.6-0.7,0.9-1.4,0.9-1.4s-1.4,0.4,0-0.6s0.6-0.4,1.4-1c0.9-0.6,2.2-1.3,2.2-1.3
	l1.6-1.6c0,0-0.7-0.7,0-0.6s1.6,0.3,1.6,0.3l0.9,0.3V21l0.9,0.7v0.7v0.9c0,0-0.4,0.4,0,0.8c0.4,0.3,0.6,0.8,1,0.4
	c0.4-0.3,0.9-1.7,0.9-1.7v-0.9l0.8-0.9l1.2-0.6l1.3-0.4l1.8,0.1l1.4,0.2l1,0.4l1.1,0.2h1l1.2-0.4l1.3-0.9l1.3-0.3c0,0,0,0.2,0,0.6
	c0,0.3-0.7,1-0.7,1l-1,1.1c0,0-0.7,0.9-0.9,1.2c-0.2,0.3-1.3,1.3-1.3,1.3l-0.1,1c0,0,0,0.3,0,1S88,27.8,88,27.8s-0.2,0.6-0.2,0.9
	s-0.1,0.6-0.2,1.1c-0.1,0.6-0.4,1.2-0.8,1.6c-0.3,0.3-1.1,0.8-1.4,1s-1.6,1.2-1.6,1.2l-0.6,1c0,0-0.3,0.8-0.4,1.2S82.4,37,82,37.5
	c-0.3,0.4-0.7,0.4-0.8,0.9c-0.1,0.5,0,1.3-0.7,1.6s-2.1,0-2.1,0l-0.6-1.2l-0.6-0.6l-1.6-0.1l-1.1,0.2l-0.6,0.6l-0.1,0.7
	c0,0,0,0.3,0,0.6s-0.2,1.7-0.2,1.7S73.3,42.6,73,43c-0.2,0.4-1.1,1-1.1,1l-1.3,0.8c0,0-0.2,0.4-0.4,0.9c-0.2,0.4-0.7,0.8-1,1.2
	s-1,0.9-1.1,1.2s0.8-0.4-0.1,0.3c-0.9,0.8-2.3,0.9-2.5,1.1c-0.2,0.2-0.9,0.3-1.6,0.6c-0.7,0.2-0.7-0.3-1.3,0
	c-0.7,0.3-1.3,0.6-1.6,0.1c-0.2-0.5-0.4-1.1-0.4-1.5s-1.3-0.9-1.3-0.9s-1,0.1-1.1,0.4c-0.1,0.3,0.6-0.3-0.1,0.3
	c-0.7,0.7-0.7,0.7-0.7,0.7l-0.9,0.1l-1,0.2l-1.1,0.9c0,0-0.8,0.3-1.1,0.5s-1.1,0.4-1.1,0.8c0,0.3-0.8-0.3,0,0.3
	c0.8,0.7,0.3-0.1,0.8,0.7c0.4,0.8-1.1,1.8-1.1,1.8h-1.1h-1c0,0-0.4,0.7-0.8,1c-0.3,0.3-0.7-0.4-1.2,0c-0.9,0.5-0.2,0.8-0.9,0.5
	c-0.7-0.2-0.3,1-0.7-0.2c-0.3-1.2-0.9-1.6-0.2-2s0.7-0.4,0.7-0.4s-1-1-1.8-0.9s-1.1-0.3-2.1,0s-1.8,0.3-2.1,0.4
	c-0.3,0.1-0.7,0.1-1.1,0c-0.4-0.1-3.2-1.2-3.2-1.2v-0.6l-0.7-1.4c0,0-0.1-0.8-0.8-0.7s-0.9,0.1-1.3,0.2c-0.4,0.1,0.2,0.1-0.4,0.1
	c-0.7,0-1.2-0.2-1.2-0.2s-0.8-0.3-0.9-0.9c-0.1-0.6-0.9-0.3,0-1.1s0.1,0.2,0.9-0.8c0.8-1,0.9-2.3,0.9-2.3s-0.7-0.3,0.2-1.1
	s-0.3,0,0.9-0.8s2.7-3.2,2.8-3.7c0.1-0.4-0.2-1,0.3-1.4c0.6-0.4,2-1.7,2-1.7l0.7-1.6L39,32c0,0-0.9-0.9-1.3-0.8
	c-0.4,0.1-2.1,0.2-2.1,0.2l-0.7-0.3c0,0,0.1-0.9,0.7-1.4c0.6-0.6,1.1-0.9,1.2-1.3c0.1-0.4,0.7-0.9,1.1-0.8c0.4,0.1,0.8,0,1.2-0.4
	s0.2-2.6,0.2-2.6s0.3-0.2,0.7-0.6c0.3-0.3,0,0.6,0.3-0.3s0.2-1.7,0.2-1.7s0-0.1-0.7-0.2s-0.7-0.1-0.7-0.1s-1-1.1-1.3-1.2
	s-1.2-0.4-0.9-0.9c0.3-0.4,0.4-1,0.9-1.3c0.4-0.3,0.4-0.3,0.4-0.3l-1-1.8v-1.3L38.1,12.9z"/>
<g>
	<g>
		<path class="st2" d="M18,162.5h-1.2h-1.5l-0.9,0.8l-0.8,0.7l-0.6,1v0.8v1.4l-0.6,0.9v1.5v0.5h-0.9h-0.6H9.7c-0.3,1.2,0,1.8,0,1.8
			L9.6,173v1.2v0.8H8.8H8.2H7.1v0.8v0.6H8l0.8,0.9H10l-0.2,0.9h0.9c0,0,0-0.6,0.5,0s1.4,0,1.4,0v-1.1c0,0,0.3-0.5,0.8-0.6
			c0.5-0.2,1.1-0.3,1.1-0.3l0.6-0.6l0.6-0.2v1.1v0.8h1.2c0,0,1.2-0.2,1.2-0.3c0-0.2-0.8-0.6,0-0.8s0.8-0.2,0.8-0.2v-1v-1.1
			c0,0,0.6-0.6,1.1-0.6s1.1-0.3,1.1-0.3l1.4,0.5c0,0,0.2,0.2,0.6,0.2s0.5,0,0.5,0l0.8-0.5v-0.8c0,0,0.3-0.2,0.8-0.5s0.5-0.3,0.5-0.3
			v-1.2c0,0-0.6-0.6,0-1c0.6-0.5,0,1.4,0.6-0.5c0.6-1.8,1.2-2.1,0.6-2.6s0.8,0.8-0.6-0.5c-1.4-1.2-1.8-2.3-2.4-2.7
			c-0.6-0.5-2.3-1.7-2.3-1.7S18.2,161.1,18,162.5z"/>
		<path class="st2" d="M43.9,150.4l1.7,2.6c0,0,2,2.1,2.9,3.3s1.4,2.3,2.3,3c0.9,0.8,1.1,1.8,2.7,2.2c1.7,0.4,2.3,0.7,3.5,1.1
			c1.2,0.5,2.4,0.8,3.3,0.8c0.9,0,1.1-0.8,2-0.8c0.9,0,2.1,0.2,2.9-0.3s1.1-1.2,1.2-1.7c0.2-0.5-2.4-3-1.8-3.8s-0.8-0.6,0.6-0.8
			s2.1-1.4,2.6-1.2s1.2-0.5,1.2-0.5v-1.2v-0.9l-0.6-0.6c0,0,0.3-1.1,0.6-0.8c0.3,0.3,0.6,0.3,1.1,0.8s0.8,1.2,0.8,1.2s0,0,0.6,0.9
			s1.4,1.7,1.8,2.1c0.5,0.5,0.5,0.2,1.2,0.9c0.8,0.8,2.6,0,2.6,0s-0.2-0.8-1.1-1.1s-2.1-1.1-2.1-1.1s-0.5-0.2-0.8-0.8
			s-0.3-0.6-0.3-0.6v-1.2V151l-0.6-0.9h-0.6h-1.1h-1.1v-1.2l0.2-1.5c1.1-0.5,1.1,0.5,1.7,0s2.3-1.4,2.3-1.4l1.4-1.2l0.5-1.1
			l-0.2-1.1l-0.5-2h0.6h0.8l0.9,1.4l1.7-0.5l2.4,0.6v0.8l0.6,2.4v2l1.5,1.5l0.8,0.8l0.9,0.2l0.9-0.5l2,0.2v0.6c0,0,0.2,1.8,0,1.8
			s0.1,0.9,0.1,0.9v0.9v0.9l0.7,1.2v2.1l0.8,1.5v0.8l2.1-0.6c0,0,0.9-0.5,0.9,0.3s0.3-0.2,0,0.8c-0.3,0.9-1.1,1.1-1.1,1.7
			c0,0.6-1.1,3.6-0.8,5c0.3,1.4,0.6,2.4,0.6,2.4l1.3,1.4v1.5c0,0,0.1,1.4,0,1.8c-0.1,0.5-0.1,0.5-0.1,0.5l-1.8-0.8h-0.8l-1.1,0.8
			c0,0-0.3,0.9-0.2,1.4c0.2,0.5,0.2,0.5,0.2,0.5l0.9,1.5l0.3,1.2l-1.1,0.9h-0.9h-1.7h-0.6c0,0,0,0.6,0.2,1.2
			c0.2,0.6,0.9-0.2,0.2,0.6c-0.8,0.8-3.2,1.7-3.2,1.7l-1.2,1.4h-1l-2.1,0.8h-1.7h-1.2l-0.2-1.5c1.1-0.2,2.3-0.8,2.3-0.8l0.6-1.2
			c0,0,0-0.5-0.3-1.1s-1.4-1.7-1.4-1.7s-1.5-1.6-2.3-1.5c-0.8,0-3.5-2.1-3.5-2.1s-0.4-1.7-2.9-1.7c-2.4,0-5.3-0.2-6.1,0
			c-0.8,0.2-4.1,0.5-4.5,0.6c-0.5,0.2-3.3,1.5-3.3,1.5s-1.1,1.7-2.8,2.7c-1.7,1.1-3.7,3.3-3.8,3.9c-0.2,0.6-0.9,2.7-0.9,2.7
			s-0.8,0.5-1.1,1.1s-1.7,1.5-1.7,1.5l-1.2,0.8c0,0-2.1,1.1-2.6,0s-2.1-1.5-2.1-1.5l-0.6-0.6v-1.2l-1.8-0.6l-1.8-0.8
			c0,0-1.1,0-1.1-0.8s0-2.7,0-2.7l-1.2-1.4l-1.5-0.6c0,0-1.7-1.1-1.1-1.7c0.6-0.6-0.5-0.5,0.6-0.6c1.1-0.2,1.8-0.2,2.3,0
			s-0.2,0.2,0.5,0.2c0.6,0,0.8,0.2,1.7,0.2s0.2,0.3,0.9,0c0.8-0.3,0.2,0.8,0.8-0.3s0.2-2.6,1.1-2.6c0.9,0,1.2-0.3,1.8-0.2
			c0.6,0.2,1.2,1.4,1.2,1.4s-0.8,0.9,0,0.9s0.8,0,0.8,0s0.3-1.1,0.8-1.4c0.5-0.3-0.3,0.2,0.5-0.3s0.8-0.5,0.8-0.5l-1.1-1.2l-1.5-0.2
			c0,0-0.5-1.2-0.3-1.7s0.3-2.3,0.3-2.3l-0.3-2.6l-0.3-1.2l-0.8-1.5c0,0-0.6-1.1-0.3-1.8c0.3-0.8,0.3-0.8,0.3-0.8l-3.3-3.5l-0.6-0.9
			c0,0,0.6-2.3,1.2-2.7c0.6-0.5,2.1-1.4,2.1-1.4s0.5-0.3,1.4-0.6s2.7-1.4,2.7-1.4L43.9,150.4z"/>
		<path class="st2" d="M89.5,143.4v1.2l0.6,1.4v0.9h1.2c0,0,0.1,0.5,1,0.6c0.9,0.2,0,0.9,0.9,0.2c0.9-0.8,1.1,0.5,0.9-0.8
			c-0.2-1.2-0.3-1.7-0.8-1.8c-0.5-0.2-1-0.6-1-0.6l-0.5-1.1L89.5,143.4L89.5,143.4z"/>
	</g>
</g>
<g>
	<g>
		<path class="st2" d="M31.9,375.4c0,0,0,0.6,1,0s1.3-0.9,1.7-0.7c0.4,0.1,0.9,0,0.9,0h1.4h1.4l1.6,0.5c0,0-0.4,0.5,0,1
			c0.4,0.4,0.1,0.9,0,1.3s-0.1,0.4-0.1,0.4l-0.4,1.1v1.4l-0.9,0.9l-1,1.1h-0.7h-1.4H35l-0.9,1.1c0,0-0.6,0.1-1,0s-0.9-0.6-1.1-0.9
			c-0.3-0.3-0.7-0.7-1.1-1.1c-0.4-0.4-0.7-2.4-1-2.4s-0.7-0.6-0.7-0.6s-0.3-1.3,0-1.7c0.3-0.4,0.3-0.4,0.3-0.4L31.9,375.4z"/>
		<path class="st2" d="M54.5,305c0,0,1.1,1,0,1.7s-1.9,1.3-1.9,1.3l-1.1,0.7h-2h-1.4v1.7v1c0,0,0.1,0.3,0,0.9s-0.4,1-0.6,1.4
			c-0.1,0.4-1,1.4-1,1.4v1.6v1.1c0,0-0.7,1.1,0,1.7s0.6,0.9,0.4,1.3c-0.1,0.4-1,1-1.4,1.1s-0.6-0.4-1.1,0c-0.6,0.4-2.1-0.5-2.6,0
			c-0.4,0.5-1.8,1-1.8,1s-0.7,0.9-1.2,1.1c-0.6,0.3-0.9,0.7-1.4,0.9c-0.6,0.1-0.7-0.3-1.6,0c-0.9,0.3-1.9,0-1.9,0s0.3-1,0-1.5
			c-0.3-0.4-0.6-1.3,0-1.6c0.6-0.3,1.3-1.1,1.9-1.3c0.6-0.1,1.4-0.4,1.4-0.4c1-1.3,1-1.6,1-2.3c0-0.7,0-1.4,0-1.4s-0.7-1.1,0.1-1.5
			c0.9-0.4,1.2,0.5,1.7,0s-0.2,0.1,0.5-0.5s-0.8-2.1-0.5-3.1s0-2.6,0-2.6s-0.9-1.7,0-2.4c0.9-0.7,1.2-1.7,1.6-2.1
			c0.4-0.4,0.9-1.1,1.6-1.3c0.7-0.1,1.6,0,2,0s0.6-0.6,1.6-0.1s0,0.3,1,0.5c1,0.1,2.6,0.6,2.6,0.6l0.7-0.1l1.1-0.1
			C52.3,303.7,54.5,303.3,54.5,305z"/>
		<path class="st2" d="M52,299.6l1.1,1.6l1.9,1.6h2.1l1.7,1.4h1.1l0.9,1.7c0,0,0.3,1.3,0.6,1.7c0.3,0.4,1,1.3,1,1.3s0.3,0,0.7,0
			c0.4,0,1.3-0.7,1.3-0.7s0.1-0.6,0.7-0.7s0,0,0.6-0.1s0.6-0.4,1.6-0.4s2.6-0.9,2.8-2c0.3-1.1-0.4-2.6,0-3.8
			c0.4-1.3,0.4-3.3-1.6-4.1c-2-0.9-3.8-1.7-4.3-1.4c-0.4,0.3-4.1,0.9-4.1,0.9s-2.4,1.3-2.8,1.4c-0.4,0.1-4.4,0-4.4,0
			S52,298.2,52,299.6z"/>
		<path class="st2" d="M67.5,308.9c0,0,0.7,0,2.8,0.7c2.1,0.7,3.2,0,4.5,1.1s2,1.9,2,1.9s0.9-1.7,1.9-1.9c1-0.1,3.4,1.9,4.3,1.9
			s1.6-0.9,3,0s2.4,1.7,2.7,2.7c0.3,1,0.9,2.4,1.3,2.8s2.3,2,2.3,2s-0.1,0.3,0,2s-1.3,2.4-2.7,3c-1.4,0.6-2.1,0.6-2.7,0
			s-0.3-1.7-1.7-1.7c-1.4,0-2.1,0.3-2.1,0.3s0.6,0.4-0.7,0.6c-1.3,0.1-2.7-0.4-3.1,0s-1,0.7-1.3,1.3c-0.3,0.6-0.9,1.3-1.3,1.6
			c-0.4,0.3-1,0.7-2,1.1s-2.4,2.3-2.7,2.8c-0.3,0.6-1,2.1-1,2.1l-0.5,1.1c0,0-0.2-0.6-1.1,0s-2.8,0-2.8,0s-1.3-0.5-1.9,0.3
			c-0.6,0.7-0.7,0.9-1.3,0.9c-0.6,0-2.4-1.1-2.8-1.3c-0.4-0.1-1.7-1.3-1.7-1.3s0-0.6-1.6-0.9s-2.7-0.7-3.3-1.6s-0.7-1.4-1.1-1.6
			c-0.4-0.1-1.1-0.7-1.6-0.7c-0.4,0-1.4,0.4-1.4-0.7s2.8-5.3,4.1-4.1c1.3,1.1,2.4,2.8,3,3.3c0.6,0.4,1.4,0.4,1.9,0.6
			c0.4,0.1,1-0.1,1.6,0.1c0.6,0.3,0.9,0.3,1.7,0.4c0.9,0.1,0.6,0,1.7,0s2.7-1.1,2.6-1.9c-0.1-0.7-0.7-0.7-1.3-0.9
			c-0.6-0.1-2.7,0-2.7,0s-2.3-0.1-2.7,0c-0.4,0.2-4.7-1.3-4.5-1.7c0.2-0.4-0.1-0.3,0-1.2c0.1-0.9,0.1-0.9,0.1-0.9s-1.1-0.7-0.1-1.3
			c1.1-0.6-1.6-0.1,1.6-2c3.3-1.9,4.1-3.4,4.5-4.1c0.4-0.6,0.4-1.2,1.2-1.2c0.9,0,0,1.4,0.9,0s0.9-2.7,0.9-2.7
			S66.2,307.7,67.5,308.9z"/>
		<path class="st2" d="M63.4,285.2l-0.9,1.1l-1.4,1.1c0,0-0.6,0.7-0.6,1.1s0,1.7,0,1.7l0.6,1.6c0,0,0.5,0.7,1.7,0.9
			c1.1,0.1,1.1,1.1,2,0s0.6-1.1,1.1-1.7c0.6-0.6,0.6-0.6,0.7-1.8c0.1-1.2,0-2.5,0-2.5S65.6,282.9,63.4,285.2z"/>
		<path class="st2" d="M47.4,332.2c0,0,1.1,1.3,1.6,1.4c0.4,0.1,1.7,1,2.1,1.1c0.4,0.1,1.6,0.7,2,0.7s1.7-0.9,1.9,0s-0.3,1.3,0,1.8
			c0.3,0.6,0.9,0.9,0,1.3s-0.6-0.9-1.5,0s-0.8,0.7-2.1,1c-1.2,0.3-0.8,0.4-1.8,0.9c-1,0.4-0.7,0.6-2.3,0.9s-0.9,0-2.1,0
			c-1.3,0-2,1.4-2,0.1s-0.9-2.8,0-3c0.9-0.1,1.1-0.3,1.7-0.6c0.6-0.3,1-1.4,1-1.4l-0.3-1c0,0-0.9-1-0.7-1.4
			C45.1,333.7,46.8,331.6,47.4,332.2z"/>
		<path class="st2" d="M44.4,346.9l1.3,2.1c0,0,0.6,1.3,1,1.6c0.4,0.3,1.6,2.1,1.6,2.1s0.3,1.4,0,2.3s-1.2,1.4-1.9,2.1
			s-1.1,0.6-1.4,1c-0.3,0.4,1.3,0.7-0.6,0.9c-1.9,0.1-1.9,0.7-2.8,0c-0.9-0.7-2.1-1.7-2.1-1.7s-0.4-0.3,0-1.1
			c0.4-0.9,0.7-1.4,0.7-1.4s0.6-2,0.8-2.7c0.1-0.7,0-1.7,0-1.7s-2.2-0.4-1.6-2C39.9,346.8,43.8,346,44.4,346.9z"/>
		<path class="st2" d="M69.1,370.4c0,0,0.6,1.1,1.2,1.6c0.6,0.4,2.6,2.1,3,2.7s0.3,1.7,1.6,1.3c1.3-0.4,1.3-0.4,1.3-0.4
			s-0.3-1.9,0-2.3s-1-1,0-1.4s1.1-0.6,1.7-1.4c0.6-0.9,0-1.1,0-1.1l-1.7,0.7c0,0-0.4,0.6-1,0.3c-0.6-0.3,0.1-0.1-0.6-0.3
			c-0.7-0.1-0.3-1.3-1.9-0.7C71.2,369.8,69.1,370.4,69.1,370.4z"/>
		<path class="st2" d="M58.4,372.6h2.1h0.6c0,0-0.1,2,0,2.1c0.1,0,0.5,1.9-0.6,1.4s-2.1-1.7-2.1-1.7V372.6z"/>
	</g>
</g>
<path class="st1" d="M446.7,605.9c0.1,0.1,1,0.5,1.2,0.5s0.9-0.1,1.3,0s1-0.1,1.3,0s0.7-0.3,1.3-0.3c0.6,0.1,1.8-0.1,2.2,0
	c0.4,0.1,1,0.3,1.1,0.5s0.2,0.9,0.2,1.5s-0.3,1.6-0.4,1.8c0,0.2,0,1.2,0.1,1.5c0.1,0.2,1.4,2.1,1.4,2.1s1.7,1,2,1.2s1.3,1.1,1.3,1.1
	s0.4,0.5,0,1c-0.4,0.6-0.8,1.3-1.1,1.6s-0.2,0.7-1.1,0.2s-1.6-0.5-1.9-1s-0.9-1.9-1.8-2.3c-1-0.5-1-0.2-2.2-0.5s-2-1.5-2.6-2
	s-2-0.3-2-2.2s0.1-2.3-0.2-2.7c-0.2-0.4-1.3-1-1.3-1.3C445.6,606.5,445.7,605.5,446.7,605.9z"/>
<g>
	<g>
		<path class="st3" d="M379.4,48.5c0.6-1,1.3-1.8,1.9-2.4C380.6,46.7,379.9,47.4,379.4,48.5z"/>
		<path class="st3" d="M387.7,44.2c0,0-3.3-0.9-6.3,1.8C384,44,387.7,44.2,387.7,44.2z"/>
		<path class="st3" d="M395.8,42c-0.9-0.3-2.2-0.4-4,0.1h-0.1C393.1,41.9,394.6,41.9,395.8,42z"/>
		<path class="st3" d="M414.3,139.8c0.1,0,0.2,0,0.3,0.1C414.5,139.8,414.4,139.8,414.3,139.8z"/>
		<path class="st3" d="M414.6,139.8c0.1,0,0.2,0,0.3,0.1C414.8,139.9,414.7,139.9,414.6,139.8z"/>
		<path class="st3" d="M413.8,139.6L413.8,139.6c0.1,0,0.2,0,0.2,0.1C413.9,139.6,413.8,139.6,413.8,139.6z"/>
		<path class="st3" d="M414,139.7c0.1,0,0.2,0,0.3,0.1C414.2,139.7,414.1,139.7,414,139.7z"/>
		<path class="st3" d="M414.6,139.8L414.6,139.8c-0.1,0-0.2-0.1-0.3-0.1l0,0c-0.1,0-0.2,0-0.3-0.1l0,0c-0.1,0-0.2,0-0.2-0.1l0.1,0.2
			l1.1,0.1l0,0C414.8,139.9,414.7,139.9,414.6,139.8z"/>
		<path class="st3" d="M402.7,129.1c0.1-0.2,0.1-0.5,0.1-0.7C402.8,128.6,402.8,128.8,402.7,129.1z"/>
		<path class="st3" d="M402.9,126.9L402.9,126.9L402.9,126.9z"/>
		<path class="st3" d="M402.9,127.7c0,0.1,0,0.2,0,0.3C402.9,127.9,402.9,127.8,402.9,127.7z"/>
		<path class="st3" d="M402.9,128.1c0-0.1,0-0.2,0-0.3c0-0.3,0-0.5,0-0.8l0,0l-0.2,2.1c0.1-0.2,0.1-0.5,0.1-0.7
			C402.9,128.2,402.9,128.1,402.9,128.1z"/>
		<path class="st3" d="M403.5,117.9l-3.2,2.7C402.3,120.6,403.5,117.9,403.5,117.9z"/>
		<path class="st3" d="M376.2,93.3L376.2,93.3L376.2,93.3z"/>
		<polygon class="st3" points="376.3,92.4 376.3,92.5 376.3,92.5 		"/>
		<path class="st3" d="M376.2,93.3c0-0.3,0-0.5,0-0.8l0,0l-0.2,1.7C376.2,93.9,376.2,93.6,376.2,93.3L376.2,93.3z"/>
		<path class="st3" d="M401,107.8C401,107.8,401,107.9,401,107.8C401,107.9,401,107.8,401,107.8z"/>
		<path class="st3" d="M400.4,107.2L400.4,107.2L400.4,107.2z"/>
		<path class="st3" d="M400.7,107.5L400.7,107.5L400.7,107.5z"/>
		<path class="st3" d="M401.3,108.2L401.3,108.2L401.3,108.2z"/>
		<path class="st3" d="M401.3,108.2c-0.1-0.1-0.2-0.2-0.3-0.4l0,0c-0.1-0.1-0.2-0.2-0.3-0.3l0,0c-0.1-0.1-0.2-0.2-0.3-0.3l0,0
			c-0.2-0.2-0.5-0.4-0.7-0.6l2.4,3C401.8,109.1,401.6,108.6,401.3,108.2L401.3,108.2z"/>
		<path class="st3" d="M402.7,125.4L402.7,125.4L402.7,125.4z"/>
		<path class="st3" d="M400.5,120.8C400.5,120.9,400.5,120.9,400.5,120.8C400.5,120.9,400.5,120.9,400.5,120.8z"/>
		<path class="st3" d="M400.3,120.6L400.3,120.6L400.3,120.6z"/>
		<path class="st3" d="M400.3,120.7C400.4,120.7,400.4,120.7,400.3,120.7C400.4,120.7,400.4,120.7,400.3,120.7z"/>
		<path class="st3" d="M402.7,125.4c-0.5-2.2-1.7-3.9-2.2-4.5l0,0l-0.1-0.1l0,0l0,0l0,0l2.6,5.3
			C402.8,125.8,402.8,125.6,402.7,125.4L402.7,125.4z"/>
		<path class="st3" d="M410.4,133.7L410.4,133.7L410.4,133.7z"/>
		<path class="st3" d="M410.4,133.7C410.4,133.7,410.3,133.7,410.4,133.7l-3.3-2.8l-4.4-1.9l2.7,1.2l3.3,2.6l3.7,4.3
			C411.7,135.7,410.7,134.1,410.4,133.7L410.4,133.7z"/>
		<path class="st3" d="M400.3,120.7L400.3,120.7L400.3,120.7z"/>
		<path class="st3" d="M401.3,108.2c0.3,0.4,0.5,0.9,0.7,1.4l0,0C401.8,109.1,401.6,108.6,401.3,108.2z"/>
		<path class="st3" d="M376.3,92.5c0,0.3,0,0.5,0,0.8C376.3,93,376.3,92.7,376.3,92.5z"/>
		<path class="st3" d="M401.1,107.9c0.1,0.1,0.2,0.2,0.3,0.4C401.2,108.1,401.1,108,401.1,107.9z"/>
		<path class="st3" d="M394.9,104.3C394.9,104.4,394.9,104.4,394.9,104.3C394.9,104.4,394.9,104.3,394.9,104.3L394.9,104.3
			L394.9,104.3z"/>
		<path class="st3" d="M414,139.7L414,139.7L414,139.7z"/>
		<path class="st3" d="M376.1,94.2c0.1-0.3,0.1-0.6,0.1-0.9C376.2,93.6,376.2,93.9,376.1,94.2z"/>
		<path class="st3" d="M400.7,107.5c0.1,0.1,0.2,0.2,0.3,0.3C400.9,107.7,400.8,107.6,400.7,107.5z"/>
		<path class="st3" d="M400.4,107.2c0.1,0.1,0.2,0.2,0.3,0.3C400.6,107.4,400.5,107.3,400.4,107.2z"/>
		<path class="st3" d="M395,104.4c0,0.1,0,0.2,0.1,0.3l0,0C395,104.6,395,104.5,395,104.4z"/>
		<path class="st3" d="M399.6,106.6L399.6,106.6c0.3,0.2,0.5,0.4,0.7,0.6C400.1,106.9,399.9,106.8,399.6,106.6z"/>
		<path class="st3" d="M402.9,126.9c0,0.3,0,0.5,0,0.8C402.9,127.4,402.9,127.2,402.9,126.9z"/>
		<path class="st3" d="M414.9,139.9C415,139.9,415,139.9,414.9,139.9L414.9,139.9C415,139.9,415,139.9,414.9,139.9z"/>
		<path class="st3" d="M414.6,139.8L414.6,139.8L414.6,139.8z"/>
		<path class="st3" d="M402.9,128.1c0,0.1,0,0.2,0,0.3C402.9,128.2,402.9,128.1,402.9,128.1z"/>
		<path class="st3" d="M410.4,133.7c0.3,0.4,1.3,2,2,3.5l0,0C411.7,135.7,410.7,134.1,410.4,133.7z"/>
		<path class="st3" d="M410.3,133.7C410.3,133.7,410.4,133.7,410.3,133.7C410.4,133.7,410.3,133.7,410.3,133.7z"/>
		<path class="st3" d="M402.8,125.5c0,0.2,0.1,0.3,0.1,0.5l0,0C402.8,125.8,402.8,125.6,402.8,125.5z"/>
		<path class="st3" d="M400.4,120.7C400.4,120.8,400.4,120.8,400.4,120.7C400.4,120.8,400.4,120.8,400.4,120.7z"/>
		<path class="st3" d="M400.5,120.9c0.5,0.6,1.7,2.3,2.2,4.5C402.2,123.1,401,121.5,400.5,120.9z"/>
		<path class="st3" d="M414.3,139.7C414.3,139.7,414.3,139.8,414.3,139.7C414.3,139.8,414.3,139.7,414.3,139.7z"/>
		<path class="st3" d="M395,104.4L395,104.4L395,104.4z"/>
		<path class="st3" d="M395,104.4C394.9,104.4,394.9,104.4,395,104.4l0.1,0.3C395,104.6,395,104.5,395,104.4L395,104.4z"/>
		<path class="st3" d="M371.9,87L371.9,87L371.9,87z"/>
		<path class="st3" d="M413,138.5C413,138.5,412.9,138.4,413,138.5C412.9,138.4,413,138.5,413,138.5z"/>
		<path class="st3" d="M402.2,110.6L402.2,110.6C402.2,110.5,402.2,110.5,402.2,110.6z"/>
		<path class="st3" d="M402.3,111.4c0-0.2,0-0.3,0-0.5C402.3,111.1,402.3,111.3,402.3,111.4z"/>
		<path class="st3" d="M372.1,87L372.1,87L372.1,87z"/>
		<path class="st3" d="M396.9,105.3L396.9,105.3L396.9,105.3z"/>
		<path class="st3" d="M417.2,140.2c-0.2,0-0.4,0-0.5,0C416.8,140.2,417,140.2,417.2,140.2z"/>
		<path class="st3" d="M371.7,86.9L371.7,86.9L371.7,86.9z"/>
		<path class="st3" d="M413.2,139.4c0,0,0.2,0.1,0.6,0.2l0,0C413.4,139.5,413.2,139.4,413.2,139.4z"/>
		<path class="st3" d="M396.6,105.2L396.6,105.2L396.6,105.2z"/>
		<path class="st3" d="M413.1,139v-0.1V139z"/>
		<path class="st3" d="M376.3,92.4L376.3,92.4L376.3,92.4z"/>
		<path class="st3" d="M395.1,104.9L395.1,104.9L395.1,104.9z"/>
		<path class="st3" d="M416.6,140.1c-0.2,0-0.3,0-0.5,0C416.2,140.1,416.4,140.1,416.6,140.1z"/>
		<path class="st3" d="M395.5,105L395.5,105L395.5,105z"/>
		<path class="st3" d="M398.4,105.9L398.4,105.9L398.4,105.9z"/>
		<path class="st3" d="M399.2,106.3L399.2,106.3L399.2,106.3z"/>
		<path class="st3" d="M398.8,106.1L398.8,106.1L398.8,106.1z"/>
		<path class="st3" d="M415.5,140c-0.2,0-0.3-0.1-0.5-0.1C415.1,139.9,415.3,140,415.5,140z"/>
		<path class="st3" d="M402.9,126.9L402.9,126.9L402.9,126.9z"/>
		<path class="st3" d="M402.1,110L402.1,110L402.1,110z"/>
		<path class="st3" d="M386.2,100.7L386.2,100.7L386.2,100.7z"/>
		<path class="st3" d="M416,140.1c-0.2,0-0.3,0-0.5-0.1C415.7,140,415.9,140.1,416,140.1z"/>
		<path class="st3" d="M395.2,104.9C395.2,104.9,395.1,104.9,395.2,104.9C395.1,104.9,395.2,104.9,395.2,104.9z"/>
		<path class="st3" d="M395.3,105L395.3,105L395.3,105z"/>
		<path class="st3" d="M394.9,104.3L394.9,104.3L394.9,104.3z"/>
		<path class="st3" d="M386.5,100.8L386.5,100.8L386.5,100.8z"/>
		<path class="st3" d="M386.2,100.7L386.2,100.7L386.2,100.7L386.2,100.7z"/>
		<path class="st3" d="M394.9,104.3c-0.9-2.3-6.9-3.3-8.4-3.6l0,0c-0.1,0-0.2,0-0.2,0c-0.1,0-0.1,0-0.1,0l8.1,3.7l0.8,0.2
			L394.9,104.3L394.9,104.3z"/>
		<path class="st3" d="M376.1,94.2l3.3,1.9l6.7,4.6C383.8,96.9,376.1,94.2,376.1,94.2z"/>
		<path class="st3" d="M387.5,100.9c0.1,0,0.2,0,0.3,0.1C387.7,101,387.6,100.9,387.5,100.9z"/>
		<path class="st3" d="M388.1,101.1c0.1,0,0.2,0,0.3,0.1C388.4,101.1,388.2,101.1,388.1,101.1z"/>
		<path class="st3" d="M389.2,101.3c0.1,0,0.2,0.1,0.3,0.1C389.5,101.4,389.4,101.3,389.2,101.3z"/>
		<path class="st3" d="M388.5,101.1c0.1,0,0.2,0,0.3,0.1C388.7,101.2,388.6,101.1,388.5,101.1z"/>
		<path class="st3" d="M388.9,101.2c0.1,0,0.2,0.1,0.3,0.1C389.1,101.3,389,101.2,388.9,101.2z"/>
		<path class="st3" d="M387.2,100.9c0.1,0,0.2,0,0.3,0C387.4,100.9,387.3,100.9,387.2,100.9z"/>
		<path class="st3" d="M386.2,100.7L386.2,100.7c0.1,0,0.2,0,0.3,0l0,0l0,0C386.4,100.7,386.2,100.7,386.2,100.7z"/>
		<path class="st3" d="M389.6,101.4c0.1,0,0.2,0.1,0.4,0.1C389.9,101.5,389.8,101.4,389.6,101.4z"/>
		<path class="st3" d="M387,100.8c0.1,0,0.2,0,0.2,0C387.1,100.9,387,100.8,387,100.8z"/>
		<path class="st3" d="M386.5,100.8c0,0,0.1,0,0.2,0C386.6,100.8,386.6,100.8,386.5,100.8z"/>
		<path class="st3" d="M386.7,100.8c0.1,0,0.1,0,0.2,0C386.9,100.8,386.8,100.8,386.7,100.8z"/>
		<path class="st3" d="M387.8,101c0.1,0,0.2,0,0.3,0.1C388,101,387.9,101,387.8,101z"/>
		<path class="st3" d="M391.3,101.9c0.1,0,0.2,0.1,0.3,0.1C391.5,102,391.4,101.9,391.3,101.9z"/>
		<path class="st3" d="M393.8,103.1c0.1,0.1,0.2,0.1,0.2,0.2C393.9,103.2,393.9,103.1,393.8,103.1z"/>
		<path class="st3" d="M391.7,102c0.1,0,0.2,0.1,0.3,0.1C391.9,102.1,391.8,102.1,391.7,102z"/>
		<path class="st3" d="M394.1,103.3c0.1,0.1,0.2,0.1,0.2,0.2C394.2,103.4,394.1,103.3,394.1,103.3z"/>
		<path class="st3" d="M392.8,102.5c0.1,0,0.2,0.1,0.3,0.2C393,102.6,392.9,102.5,392.8,102.5z"/>
		<path class="st3" d="M393.5,102.9c0.1,0.1,0.2,0.1,0.3,0.2C393.7,103,393.6,102.9,393.5,102.9z"/>
		<path class="st3" d="M394.3,103.5c0.1,0.1,0.1,0.1,0.2,0.2C394.4,103.6,394.4,103.5,394.3,103.5z"/>
		<path class="st3" d="M392,102.2c0.1,0,0.2,0.1,0.3,0.1C392.3,102.3,392.2,102.2,392,102.2z"/>
		<path class="st3" d="M393.1,102.7c0.1,0.1,0.2,0.1,0.3,0.2C393.3,102.8,393.2,102.7,393.1,102.7z"/>
		<path class="st3" d="M390,101.5c0.1,0,0.2,0.1,0.4,0.1C390.3,101.6,390.2,101.5,390,101.5z"/>
		<path class="st3" d="M394.9,104.3L394.9,104.3L394.9,104.3c0-0.1,0-0.1-0.1-0.1C394.9,104.2,394.9,104.3,394.9,104.3z"/>
		<path class="st3" d="M394.7,103.9c0.1,0.1,0.1,0.1,0.1,0.2C394.8,104.1,394.8,104,394.7,103.9z"/>
		<path class="st3" d="M390.4,101.6c0.1,0,0.2,0.1,0.4,0.1C390.7,101.7,390.6,101.7,390.4,101.6z"/>
		<path class="st3" d="M392.4,102.3c0.1,0,0.2,0.1,0.3,0.1C392.6,102.4,392.5,102.4,392.4,102.3z"/>
		<path class="st3" d="M390.9,101.7c0.1,0,0.2,0.1,0.4,0.1C391.1,101.8,391,101.8,390.9,101.7z"/>
		<path class="st3" d="M394.5,103.7c0.1,0.1,0.1,0.1,0.2,0.2C394.6,103.8,394.6,103.8,394.5,103.7z"/>
		<path class="st3" d="M394.5,103.7L394.5,103.7L394.5,103.7z"/>
		<path class="st3" d="M390,101.5L390,101.5L390,101.5z"/>
		<path class="st3" d="M393.1,102.6C393.1,102.7,393.1,102.7,393.1,102.6C393.1,102.7,393.1,102.7,393.1,102.6z"/>
		<path class="st3" d="M392.7,102.5C392.8,102.5,392.8,102.5,392.7,102.5C392.8,102.5,392.8,102.5,392.7,102.5z"/>
		<path class="st3" d="M394,103.2C394,103.2,394,103.3,394,103.2C394,103.3,394,103.2,394,103.2z"/>
		<path class="st3" d="M394.7,103.9L394.7,103.9L394.7,103.9z"/>
		<path class="st3" d="M393.4,102.8C393.4,102.8,393.5,102.9,393.4,102.8C393.5,102.9,393.4,102.8,393.4,102.8z"/>
		<path class="st3" d="M393.7,103C393.7,103,393.8,103,393.7,103C393.8,103,393.7,103,393.7,103z"/>
		<path class="st3" d="M394.8,104.2L394.8,104.2L394.8,104.2z"/>
		<path class="st3" d="M394.3,103.4C394.3,103.5,394.3,103.5,394.3,103.4C394.3,103.5,394.3,103.5,394.3,103.4z"/>
		<path class="st3" d="M391.2,101.9L391.2,101.9L391.2,101.9z"/>
		<path class="st3" d="M388.1,101C388.1,101,388.1,101.1,388.1,101C388.1,101.1,388.1,101,388.1,101z"/>
		<path class="st3" d="M389.6,101.4L389.6,101.4L389.6,101.4z"/>
		<path class="st3" d="M388.5,101.1L388.5,101.1L388.5,101.1z"/>
		<path class="st3" d="M388.8,101.2C388.8,101.2,388.9,101.2,388.8,101.2C388.9,101.2,388.8,101.2,388.8,101.2z"/>
		<path class="st3" d="M389.2,101.3L389.2,101.3L389.2,101.3z"/>
		<path class="st3" d="M390.8,101.7L390.8,101.7L390.8,101.7z"/>
		<path class="st3" d="M387.8,101L387.8,101L387.8,101z"/>
		<path class="st3" d="M386.7,100.8L386.7,100.8L386.7,100.8z"/>
		<path class="st3" d="M390.4,101.6L390.4,101.6L390.4,101.6z"/>
		<path class="st3" d="M386.5,100.8L386.5,100.8L386.5,100.8z"/>
		<path class="st3" d="M392,102.1C392,102.2,392,102.2,392,102.1C392,102.2,392,102.2,392,102.1z"/>
		<path class="st3" d="M392.4,102.3L392.4,102.3L392.4,102.3z"/>
		<path class="st3" d="M391.6,102L391.6,102L391.6,102z"/>
		<path class="st3" d="M387.5,100.9L387.5,100.9L387.5,100.9z"/>
		<path class="st3" d="M386.9,100.8C386.9,100.8,387,100.8,386.9,100.8C387,100.8,386.9,100.8,386.9,100.8z"/>
		<path class="st3" d="M387.2,100.9L387.2,100.9L387.2,100.9z"/>
		<path class="st3" d="M386.5,100.8c-0.1,0-0.2,0-0.2,0C386.3,100.7,386.4,100.7,386.5,100.8z"/>
		<path class="st3" d="M394.8,104.2c0-0.1-0.1-0.1-0.1-0.2l0,0c0-0.1-0.1-0.1-0.2-0.2l0,0c-0.1-0.1-0.1-0.1-0.2-0.2l0,0
			c-0.1-0.1-0.1-0.1-0.2-0.2l0,0c-0.1-0.1-0.2-0.1-0.2-0.2l0,0c-0.1-0.1-0.2-0.1-0.3-0.2l0,0c-0.1-0.1-0.2-0.1-0.3-0.2l0,0
			c-0.1-0.1-0.2-0.1-0.3-0.2l0,0c-0.1,0-0.2-0.1-0.3-0.1l0,0c-0.1,0-0.2-0.1-0.3-0.1c0,0,0,0-0.1,0s-0.2-0.1-0.3-0.1l0,0
			c-0.1,0-0.2-0.1-0.3-0.1c0,0,0,0-0.1,0s-0.2-0.1-0.4-0.1c0,0,0,0-0.1,0s-0.2-0.1-0.4-0.1l0,0c-0.1,0-0.2-0.1-0.4-0.1l0,0
			c-0.1,0-0.2-0.1-0.4-0.1c0,0,0,0-0.1,0s-0.2-0.1-0.3-0.1l0,0c-0.1,0-0.2-0.1-0.3-0.1l0,0c-0.1,0-0.2-0.1-0.3-0.1l0,0
			c-0.1,0-0.2,0-0.3-0.1l0,0c-0.1,0-0.2,0-0.3-0.1l0,0c-0.1,0-0.2,0-0.3-0.1l0,0c-0.1,0-0.2,0-0.3,0l0,0c-0.1,0-0.2,0-0.2,0l0,0
			c-0.1,0-0.1,0-0.2,0l0,0c-0.1,0-0.1,0-0.2,0l0,0l0,0c1.5,0.2,7.5,1.3,8.4,3.6C394.9,104.3,394.9,104.2,394.8,104.2L394.8,104.2z"
			/>
		<path class="st3" d="M415,139.9c0.2,0,0.3,0.1,0.5,0.1c0,0,0,0,0.1,0c0.2,0,0.3,0.1,0.5,0.1l0,0c0.2,0,0.3,0,0.5,0h0.1
			c0.2,0,0.3,0,0.5,0L415,139.9L415,139.9z"/>
		<path class="st3" d="M415,139.9L415,139.9L415,139.9z"/>
		<path class="st3" d="M416.7,140.1h-0.1C416.6,140.1,416.6,140.1,416.7,140.1z"/>
		<path class="st3" d="M415.5,140L415.5,140L415.5,140z"/>
		<path class="st3" d="M416,140.1L416,140.1L416,140.1z"/>
		<path class="st3" d="M412.7,137.5l-0.2-0.3c0.2,0.4,0.4,0.8,0.5,1.2v0.1c0,0.1,0.1,0.3,0.1,0.4v0.1c0,0.1,0.1,0.3,0.1,0.4
			c0,0,0.2,0.1,0.6,0.2L412.7,137.5z"/>
		<path class="st3" d="M413.2,139.4c0-0.1,0-0.3-0.1-0.4C413.1,139.1,413.2,139.3,413.2,139.4z"/>
		<path class="st3" d="M413.1,138.9c0-0.1-0.1-0.3-0.1-0.4C413,138.6,413.1,138.8,413.1,138.9z"/>
		<path class="st3" d="M412.4,137.2c0.2,0.4,0.4,0.8,0.5,1.2C412.8,138,412.6,137.6,412.4,137.2L412.4,137.2z"/>
		<path class="st3" d="M403,126.3l-0.2-0.3c0,0.3,0.1,0.6,0.1,0.9l0,0L403,126.3z"/>
		<path class="st3" d="M402.8,126c0,0.3,0.1,0.6,0.1,0.9C402.9,126.6,402.9,126.3,402.8,126L402.8,126z"/>
		<path class="st3" d="M402.7,110.5l-0.7-0.9c0,0.1,0.1,0.3,0.1,0.4l0,0c0,0.1,0.1,0.3,0.1,0.4v0.1c0,0.1,0,0.2,0,0.3
			c0,0.2,0,0.3,0,0.5c0,0-0.8,3.4,1.2,6.5l-0.8-3.2L402.7,110.5L402.7,110.5z"/>
		<path class="st3" d="M402.2,110.5c0-0.1-0.1-0.3-0.1-0.4C402.2,110.2,402.2,110.3,402.2,110.5z"/>
		<path class="st3" d="M402.3,110.9c0-0.1,0-0.2,0-0.3C402.2,110.7,402.3,110.8,402.3,110.9z"/>
		<path class="st3" d="M402,109.6c0,0.1,0.1,0.3,0.1,0.4C402.1,109.9,402.1,109.8,402,109.6L402,109.6z"/>
		<path class="st3" d="M399.1,105.9l-4-1.2c0,0.1,0,0.2,0,0.2l0,0l0,0c0,0,0,0,0.1,0l0,0h0.1l0,0c0,0,0.1,0,0.2,0l0,0
			c0.3,0,0.6,0.1,1.1,0.2l0,0c0.1,0,0.2,0.1,0.3,0.1l0,0c0.5,0.1,1,0.3,1.5,0.6l0,0c0.1,0.1,0.2,0.1,0.4,0.2l0,0
			c0.1,0.1,0.2,0.1,0.3,0.2l0,0c0.1,0.1,0.3,0.2,0.4,0.2L399.1,105.9z"/>
		<path class="st3" d="M395.1,104.9L395.1,104.9L395.1,104.9z"/>
		<path class="st3" d="M399.2,106.3c0.1,0.1,0.3,0.2,0.4,0.2l0,0C399.5,106.5,399.4,106.4,399.2,106.3z"/>
		<path class="st3" d="M395,104.7c0,0.1,0,0.2,0,0.2C395,104.8,395,104.8,395,104.7L395,104.7z"/>
		<path class="st3" d="M396.9,105.3c-0.1,0-0.2-0.1-0.3-0.1C396.7,105.3,396.8,105.3,396.9,105.3z"/>
		<path class="st3" d="M399.2,106.3c-0.1-0.1-0.2-0.1-0.3-0.2C399,106.2,399.1,106.2,399.2,106.3z"/>
		<path class="st3" d="M395.4,105c-0.1,0-0.1,0-0.2,0C395.3,105,395.4,105,395.4,105z"/>
		<path class="st3" d="M396.5,105.2c-0.4-0.1-0.8-0.2-1.1-0.2C395.7,105,396.1,105.1,396.5,105.2z"/>
		<path class="st3" d="M398.8,106.1c-0.1-0.1-0.2-0.1-0.4-0.2C398.6,106,398.7,106,398.8,106.1z"/>
		<path class="st3" d="M395.1,104.9C395.1,104.9,395,104.9,395.1,104.9C395,104.9,395.1,104.9,395.1,104.9z"/>
		<path class="st3" d="M395.3,105h-0.1C395.2,104.9,395.2,104.9,395.3,105z"/>
		<path class="st3" d="M398.4,105.9c-0.5-0.2-1-0.4-1.5-0.6C397.4,105.5,397.9,105.7,398.4,105.9z"/>
		<path class="st3" d="M372.1,87c1.1,0.4,4.1,1.7,4.2,5.4C376.2,88.7,373.2,87.4,372.1,87z"/>
		<path class="st3" d="M372.1,87c-0.1,0-0.2,0-0.2-0.1C371.9,87,372,87,372.1,87z"/>
		<path class="st3" d="M371.9,87c-0.1,0-0.1,0-0.1,0C371.8,86.9,371.8,87,371.9,87z"/>
		<path class="st3" d="M371.7,86.9L371.7,86.9L371.7,86.9z"/>
	</g>
	<path class="st3" d="M336.5,117.7l0.9,0.2v0.4l0.3-3.4l3-2l4.5-1.1c0-4,2.4-3.2,2.4-3.2c4.5,2.3,1.8-6.9,1.8-6.9
		c0.3-3.4-3.3-4.6-3.3-4.6c-2.4,0-6.3-3.4-6.3-3.4c-2.7-1.7-3.9,0.6-3.9,0.6L335,97c-0.6,0.1-1.2-0.6-1.8-1.5
		c-0.4,1-0.7,2.2-0.7,3.7c0,0,1.4,1.1-0.8,3.6c0,0,1.2,3.8-1.6,7.5l-1.4,4.6l4.5,1L336.5,117.7z"/>
	<path class="st3" d="M523.8,58c0,0-7.5,2.1-9.7-2.3c0,0,1.2-3.6-1.8-6.5l-1.4-6.1c0,0-0.4-4-7.7-3.1c0,0-9.3-0.6-12.5-1.5
		c0,0-4.6-3.3-5.8-3.6l-3.4,0.4l-0.4-1.3l-2-1c0,0-3.6-1.5-4.6-1.5c0,0-2.6-2.5-4.4-3.8c0,0,0.2-2.7,2.2-4.8c0,0,0.8-1.1-2.6,0.4
		c0,0-2.2,1.7-4.8,0.4c0,0-4.4-3.3-4.8-7.9c0,0-3-4-6.4-5.2l-3-2.1c0,0-5-1.3-10.7,2.7l-2.4-1.9l-2.4,1.9c0,0-0.4,1.9-4,5l-2.2,2.1
		c0,0-4,5.4-10.7,10.3c0,0-0.6,1.1,0.4,1.7c0,0,8.7,2.7,9.9,6.1c0,0-1.2,1.5-2.8-0.8l-3.6-2.3c0,0-1.6-1.5-3,0.2
		c0,0-1.6,0.4-1.4,2.9c0,0-5.2,5-14.3,4.2c0,0-2.6,0.6-4.2,1.9c0,0-1.3-0.4-3.2-0.5c1.4,0.4,2,1.2,2,1.2l2.4,1.9l2.4,0.4l3.2,2.3
		h4.4l4,4.2l4,1.5l1.2,4.2v4.6l-2.4,2.7l-4.4,1.1l-4,3.1l-3.2,3.4l-0.8,3.8l0.4,2.7l1.2,3.1l3.2,4.2v3.1v4.2l3.2,1.5l5.2-3.1
		l3.2,0.4l1.6,3.1l2.4,2.3l1.6,2.3l1.6,2.3l-3.2,3.1l0.4,3.8c0,4.2,5.2,8.8,5.2,8.8c4,1.5,2.4,4.6,2.4,4.6c0.6,0.8,0.8,1.5,0.7,2
		l0,0l0.4-0.4c2.7,0,6.6-3.7,6.6-3.7c3.9,3.7,5.1-3.7,5.1-3.7c2.4,0,9.1-3.4,9.1-3.4l-0.6-10.9l5.1-2l2.1-2.9l10.3-2
		c3.3-3.7,7.2-6.9,7.2-6.9h4.5c0.3-2.6,8.5-9.5,8.5-9.5c9.1-0.9,7.2-3.4,7.2-3.4c0.9-2.3-2.7-6.9-2.7-6.9c1.5,1.1,5.7-0.6,5.7-0.6
		c5.7-4.6,13.3-4.9,13.3-4.9l3.6-1.1l3.4,1.8c0,0,5-1.3,5-4.2l0.4-2.5C528.5,57.6,526.3,58,523.8,58z"/>
	<path class="st3" d="M518.8,61.7c0,0-8.4,0.3-14.8,5c0,0-5.2,3.9-6.9,2.7c0,0,2.3,2.5,2.6,5c0,0,2.9,2.5-7.1,3.4c0,0-9.1,7-9.4,9.6
		h-5c0,0-4.4,3.2-8.1,7l-11.4,2l-2.4,2.9l-5.7,2l0.7,11.1c0,0-7.4,3.5-10.1,3.5c0,0-1.3,7.6-5.7,3.8c0,0-4.4,3.8-7.4,3.8l-0.5,0.4
		l0,0c-0.1,0.8-0.6,1.3-0.7,1.4l0,0l0,0c-2.7,0.4-0.4,3.1-0.4,3.1c1.8,3.9-2.7,8.9-2.7,8.9l-9,0.4l-1.8,0.5l-0.5,0.6l1.9-0.2v1.2
		l-1.3,2.6l-1,4.4l1,4.1l-2.7,1.7l-5,2.9l-2,3.2l-2,2.3l-2,2l-2,4.7c0,0,2.7,5,2,7.3c0,0,0.7,2.6,5.4,2.6c0,0,3.4,3.8,8.1,3.8
		c0,0,4,0.3,6.3,0.3c0,0,4.4-1.7,4.4,1.2c0,0,3.7,1.5,7.1,0.3c0,0,4,2.6,10.7,2.6c0,0,9.4,6.1,13.1,5.5c0,0,5.9,0.8,3.5-2.4
		c0,0,4.1,2.3,3.7-3.8c0,0,2.5-3.7,10.9,1.3c0,0,4.4,2.9,11.8,1.7l6.4-2.9c0.7-1.3,2.5-5.1,2-10c0,0-0.4-5.8,6.3-10.5
		c0,0,4-5.2,8.1-4.7c0,0-0.9-3.7-4.5-4.3c0,0-2.7-2.1,0.9-3.1c0,0,8.7-0.8,4.7-8.4c0,0-0.4-4.3,1.8-5.2c0,0-6.3,1.6-3.1-1.9l2.5-1.7
		c0,0-4.9-1.9-6.7-5.8l-1.8-3.3V124l-0.2-3.9l-0.5-2.7l-1.6-2.3l0.9-1.4c0,0-5.1-8.5-2.9-14l0.4-7.4l0.9-2.5c0,0,4-6.6,4-8.5
		c0,0,6.3,0.4,5.6-5.4c0,0,4.3-4.7,7.2-6.4c0,0,1.9-1.1,1.9-2.1l10-4.5l-3.6-2.3L518.8,61.7z"/>
	<path class="st4" d="M402.1,110c0,0.1,0.1,0.3,0.1,0.4v0.1c0,0.1,0,0.2,0,0.3c0,0.2,0,0.3,0,0.5c0,0-0.8,3.4,1.2,6.5l-0.8-3.2v-4.3
		l-0.7-0.9C402.1,109.8,402.1,109.9,402.1,110L402.1,110z"/>
	
		<linearGradient id="SVGID_1_" gradientUnits="userSpaceOnUse" x1="364.3206" y1="610.9241" x2="417.1834" y2="518.1207" gradientTransform="matrix(1 0 0 -1 0 658)">
		<stop  offset="9.644700e-02" style="stop-color:#E86649"/>
		<stop  offset="1" style="stop-color:#EA7B1C"/>
	</linearGradient>
	<path class="st5" d="M395.1,104.9L395.1,104.9L395.1,104.9c0.1,0,0.1,0,0.1,0h0.1l0,0c0,0,0.1,0,0.2,0l0,0c0.3,0,0.6,0.1,1.1,0.2
		l0,0c0.1,0,0.2,0.1,0.3,0.1l0,0c0.5,0.1,1,0.3,1.5,0.6l0,0c0.1,0.1,0.2,0.1,0.4,0.2l0,0c0.1,0.1,0.2,0.1,0.3,0.2l0,0
		c0.1,0.1,0.3,0.2,0.4,0.2l2.4,3c-0.2-0.5-0.4-1-0.7-1.4l0,0c-0.1-0.1-0.2-0.2-0.3-0.4l0,0c-0.1-0.1-0.2-0.2-0.3-0.3l0,0
		c-0.1-0.1-0.2-0.2-0.3-0.3l0,0c-0.2-0.2-0.5-0.4-0.7-0.6l-0.5-0.7l-4-1.2C395,104.8,395,104.8,395.1,104.9
		C395,104.9,395.1,104.9,395.1,104.9z"/>
	<path class="st3" d="M416.6,140.1c-0.2,0-0.3,0-0.5,0l0,0c-0.2,0-0.3,0-0.5-0.1c0,0,0,0-0.1,0c-0.2,0-0.3-0.1-0.5-0.1l0,0l-1.1-0.1
		l-0.1-0.2c-0.4-0.1-0.6-0.2-0.6-0.2c0-0.1,0-0.3-0.1-0.4v-0.1c0-0.1-0.1-0.3-0.1-0.4v-0.1c-0.1-0.4-0.3-0.8-0.5-1.2l-3.7-4.3
		l-3.3-2.6l-2.7-1.2l0.2-2.1l0,0l0,0c0-0.3,0-0.6-0.1-0.9l0,0l0,0l-2.6-5.3l3.2-2.7c-2-3.1-1.2-6.5-1.2-6.5c0-0.2,0-0.3,0-0.5
		c0-0.1,0-0.2,0-0.3v-0.1c0-0.1-0.1-0.3-0.1-0.4l0,0c0-0.1-0.1-0.3-0.1-0.4l-2.4-3c-0.1-0.1-0.3-0.2-0.4-0.2l0,0
		c-0.1-0.1-0.2-0.1-0.3-0.2l0,0c-0.1-0.1-0.2-0.1-0.4-0.2l0,0c-0.5-0.2-1-0.4-1.5-0.6l0,0c-0.1,0-0.2-0.1-0.3-0.1l0,0
		c-0.4-0.1-0.8-0.2-1.1-0.2l0,0c-0.1,0-0.1,0-0.2,0l0,0h-0.1l0,0h-0.1l0,0l0,0c0-0.1,0-0.2,0-0.2l-0.1-0.4c0,0,0-0.1-0.1-0.1l0,0
		c0-0.1-0.1-0.1-0.1-0.2l0,0c0-0.1-0.1-0.1-0.2-0.2l0,0c-0.1-0.1-0.1-0.1-0.2-0.2l0,0c-0.1-0.1-0.1-0.1-0.2-0.2l0,0
		c-0.1-0.1-0.2-0.1-0.2-0.2l0,0c-0.1-0.1-0.2-0.1-0.3-0.2l0,0c-0.1-0.1-0.2-0.1-0.3-0.2l0,0c-0.1-0.1-0.2-0.1-0.3-0.2l0,0
		c-0.1,0-0.2-0.1-0.3-0.1l0,0c-0.1,0-0.2-0.1-0.3-0.1c0,0,0,0-0.1,0s-0.2-0.1-0.3-0.1l0,0c-0.1,0-0.2-0.1-0.3-0.1c0,0,0,0-0.1,0
		s-0.2-0.1-0.4-0.1c0,0,0,0-0.1,0s-0.2-0.1-0.4-0.1l0,0c-0.1,0-0.2-0.1-0.4-0.1l0,0c-0.1,0-0.2-0.1-0.4-0.1c0,0,0,0-0.1,0
		s-0.2-0.1-0.3-0.1l0,0c-0.1,0-0.2-0.1-0.3-0.1l0,0c-0.1,0-0.2-0.1-0.3-0.1l0,0c-0.1,0-0.2,0-0.3-0.1l0,0c-0.1,0-0.2,0-0.3-0.1l0,0
		c-0.1,0-0.2,0-0.3-0.1l0,0c-0.1,0-0.2,0-0.3,0l0,0c-0.1,0-0.2,0-0.2,0l0,0c-0.1,0-0.1,0-0.2,0l0,0c-0.1,0-0.1,0-0.2,0l0,0
		c-0.2,0-0.3,0-0.3,0l0,0c-2.4-3.8-10.1-6.5-10.1-6.5l0.2-1.7l0,0l0,0c-0.1-3.7-3-5-4.2-5.4l0,0c-0.1,0-0.2,0-0.2-0.1l0,0
		c-0.1,0-0.1,0-0.1,0l0,0l0,0c-2.8,0.4-4-1.1-4-1.1c-6.4,0-8.9-6.9-8.9-6.9c0-3.1-6.8-3.1-6.8-3.1c-1.6,0.3-4.2-0.7-5.7-1.4
		c-1.2,1.5-2.5,3-4.1,4.5l-1.2,1.9l-0.6,1.7l2,0.2c0,0-1,1.1-2.6,1.1l-1.2,2.1l-1,5.2c0,0-2.9,1-4.3,4.3c0.6,0.9,1.3,1.6,1.8,1.5
		l0.9-2.9c0,0,1.2-2.3,3.9-0.6c0,0,3.9,3.4,6.3,3.4c0,0,3.6,1.1,3.3,4.6c0,0,2.7,9.2-1.8,6.9c0,0-2.4-0.9-2.4,3.2l-4.5,1.1l-3,2
		l-0.3,3.1v0.4l5.4,2c0,0-2.7,1.7,0.3,4c0,0-0.9,3.7,0.9,5.7l8.8,2.3c0,0,2.4,4.6,5.7,6c0,0,5.7,2.9,4.5,4.6l-2.7,4.9
		c0,0,6,2.9,1.8,5.2c0,0-2.7-0.3-2.7,3.4l4.5,3.4l3-1.7l3.9-1.7l6.3,0.6l5.1-0.6l6-0.3c0,0,1.5,2.9,4.2,4.9c0,0,2.7,2.6,3.4,5
		c0.2,0.9,0.2,1.8-0.4,2.5l-1.2,2.3l5.1-0.3l4.8-1.1l2.1-1.1l1.8-4.6l1.8-2l1.8-2.3l1.8-3.2l4.5-2.9l2.4-1.7l-0.9-4l0.9-4.3l1.2-2.6
		v-1.1l-1.7,0.2l-3.2,0.4c-0.2,0-0.4,0-0.5,0C416.6,140.1,416.6,140.1,416.6,140.1z"/>
	<path class="st3" d="M433.3,122.9c0,0,1.6-3.1-2.4-4.6c0,0-5.2-4.6-5.2-8.8l-0.4-3.8l3.2-3.1l-1.6-2.3l-1.6-2.3l-2.4-2.3l-1.6-3.1
		l-3.2-0.4l-5.2,3.1l-3.2-1.5v-4.2v-3.1l-3.2-4.2l-1.2-3.1l-0.4-2.7l0.8-3.8l3.2-3.4l4-3.1l4.4-1.1l2.4-2.7v-4.6l-1.2-4.2l-4-1.5
		l-4-4.2h-4.4l-3.2-2.3l-2.4-0.4l-2.4-1.9c0,0-0.6-0.8-2-1.2c-1.2-0.1-2.7-0.1-4,0.1l-4.1,2.1c0,0-3.7-0.2-6.3,1.8
		c-0.7,0.6-1.3,1.4-1.9,2.4c0,0-0.6,1-4.4,1c0,0-2.8,0.4-5.2,2.1c0,0-5,2.7-7.2,2.7l-0.2,1.3l-1.6,0.4l-1.2,1.3
		c0,0-8.1,3.1-9.3,11.3c0,0-1,1.9-2.7,4.3c-0.4,0.5-0.8,1.1-1.2,1.6c1.5,0.7,4,1.6,5.7,1.4c0,0,6.8,0,6.8,3.1c0,0,2.4,6.9,8.9,6.9
		c0,0,1.2,1.5,4,1.1l0,0l0,0h0.1l0,0c0.1,0,0.1,0,0.2,0.1l0,0c1.1,0.4,4.1,1.7,4.2,5.4l0,0l0,0l0,0c0,0.3,0,0.5,0,0.8v0.1
		c0,0.3-0.1,0.6-0.1,0.9c0,0,7.7,2.7,10.1,6.5l0,0c0,0,0.2,0,0.3,0l0,0c0,0,0.1,0,0.2,0l0,0c0.1,0,0.1,0,0.2,0l0,0
		c0.1,0,0.2,0,0.2,0l0,0c0.1,0,0.2,0,0.3,0l0,0c0.1,0,0.2,0,0.3,0.1l0,0c0.1,0,0.2,0,0.3,0.1l0,0c0.1,0,0.2,0,0.3,0.1l0,0
		c0.1,0,0.2,0,0.3,0.1l0,0c0.1,0,0.2,0.1,0.3,0.1l0,0c0.1,0,0.2,0.1,0.3,0.1c0,0,0,0,0.1,0s0.2,0.1,0.4,0.1l0,0
		c0.1,0,0.2,0.1,0.4,0.1l0,0c0.1,0,0.2,0.1,0.4,0.1c0,0,0,0,0.1,0s0.2,0.1,0.4,0.1c0,0,0,0,0.1,0s0.2,0.1,0.3,0.1l0,0
		c0.1,0,0.2,0.1,0.3,0.1c0,0,0,0,0.1,0s0.2,0.1,0.3,0.1l0,0c0.1,0,0.2,0.1,0.3,0.1l0,0c0.1,0,0.2,0.1,0.3,0.2l0,0
		c0.1,0.1,0.2,0.1,0.3,0.2l0,0c0.1,0.1,0.2,0.1,0.3,0.2l0,0c0.1,0.1,0.2,0.1,0.2,0.2l0,0c0.1,0.1,0.2,0.1,0.2,0.2l0,0
		c0.1,0.1,0.1,0.1,0.2,0.2l0,0c0.1,0.1,0.1,0.1,0.2,0.2l0,0c0.1,0.1,0.1,0.1,0.1,0.2l0,0c0,0,0,0.1,0.1,0.1l0,0v0.1l0,0
		c0,0.1,0,0.2,0.1,0.3l4,1.2l0.5,0.7c0.3,0.2,0.5,0.4,0.7,0.6l0,0c0.1,0.1,0.2,0.2,0.3,0.3l0,0c0.1,0.1,0.2,0.2,0.3,0.3l0,0
		c0.1,0.1,0.2,0.2,0.3,0.4l0,0c0.3,0.4,0.5,0.9,0.7,1.4l0.7,0.9v4.3l0.8,3.2c0,0-1.2,2.7-3.2,2.7l0,0l0,0l0,0l0.1,0.1l0,0
		c0.5,0.6,1.7,2.3,2.2,4.5v0.1c0,0.2,0.1,0.3,0.1,0.5l0,0l0,0l0.2,0.3l-0.1,0.6l0,0l0,0c0,0.3,0,0.5,0,0.8c0,0.1,0,0.2,0,0.3
		c0,0.1,0,0.2,0,0.3c0,0.2-0.1,0.5-0.1,0.7l4.4,1.9l3.2,2.7c0,0,0,0,0.1,0.1l0,0c0.2,0.4,1.3,2,2,3.5l0.2,0.3l1.1,2.1
		c0.1,0,0.2,0,0.2,0.1l0,0c0.1,0,0.2,0,0.3,0.1l0,0c0.1,0,0.2,0,0.3,0.1l0,0c0.1,0,0.2,0,0.3,0.1l0,0l2.2,0.3l3.6-1.1l1.6-0.5
		l8.1-0.4c0,0,4-5,2.4-8.8c0,0-2-2.7,0.4-3.1c0,0,0.6-0.6,0.7-1.4C434.1,124.4,433.9,123.7,433.3,122.9z"/>
	<path class="st6" d="M440.8,356.7l-6.6-0.9l-5.7,2.6l-0.6,2.3l-1.2,2l-1.5,3.2l2.1,3.4l1.2,2.3l-3.9,4c-2.7,1.4-2.1,5.2-2.1,5.2
		c-2.7,1.7-1.5,7.5-1.5,7.5c-2.4,1.4-3,3.7-3,3.7v2.9c-2.1,0.6-2.7,4.3-2.7,4.3c0,4.6-2.1,5.2-2.1,5.2c-2.4,1.7-2.1,4.9-2.1,4.9
		l1.2,5.2c0,2.6-5.4,2.3-5.4,2.3c-0.6,2.3-5.4,3.2-5.4,3.2c0.6-2-1.2-3.7-1.2-3.7c0.3-2-1.5-2-1.5-2l-3.6-2l-3.3-1.7
		c0.6-2-2.7-4.6-2.7-4.6c0-4-3.6-6.6-3.6-6.6c-3,0-6,1.4-6,1.4l-1.5-1.7c-1.5-2.3-8.5-4-8.5-4c-6-0.6-5.1-4.6-5.1-4.6
		c0-6-3.9-9.8-3.9-9.8s-3.3,2.3-5.1,3.7l-4.2,0.3c0,0-3.9,2.6-5.4,5.7L338,395c0,0-1.8,2-1.8,4l-0.9,2.9c0,0,3.3,2-1.8,4l-0.6,3.2
		l-3,1.4c0,0,1.8,0.9,1.8,3.4v5.5l-0.6,4c0,0-2.1,1.2-1.5,5.7c0,0,1.2,2.3,0,4l-0.3,4.9H326c0,0-3,4.3-5.1,6.3c0,0-2.7,1.7-0.6,4.9
		c0,0-2.1,3.7,0.9,6.6c0,0-1.2,2,2.4,4.9c0,0,3.3,2.3,2.7,5.7c0,0,0,0,0,0.1s0,0.2-0.1,0.4l0,0c0,0.1,0,0.1,0,0.2l0,0
		c0,0.1,0,0.2,0,0.2v0.1v0.1l0,0l0,0l0,0c0,0.1,0,0.2,0,0.3c0,0,0,0,0,0.1s0,0.3,0,0.4l0,0l0,0c0,0.1,0,0.2,0,0.3v0.1l0,0
		c0.2,1.5,0.9,3.5,2.7,5.6c0,0,6.3,1.4,6.3,5.5l-1.5,3.7l0.3,3.7c0,0-1.5,1.4-1.2,4.6l-6.6,1.4l-2.4,2.3c0,0-3.3,0.6-4.2,2.6
		l-5.1-0.6c0,0,1.2,2.6,0,4.9c0,0-3,4.9-6.3,8.3c0,0,0.6,3.7-0.9,6.3c0,0-3.9,4.9-0.6,9.8c0,0,2.4,6.9,2.4,9.8c0,0-1.8,3.7,1.2,6.6
		c0,0,3.9,4.3,3.6,7.2c0,0-4.8,1.7-6.3,1.7c0,0,0.6,4.6-0.3,6c0,0-0.9,2,1.2,3.2c0,0,1.8,2,4.5,2c0,0,4.2,0,1.8,4.9
		c0,0-4.8,2.3,1.5,6c0,0,1.5,0,0.3,2.6c0,0,0.9,1.7,0.9,3.2c0,0,1.5,0.6,2.1-0.9c0,0,2.7,2.6,4.5,2.6c0,0,4.2-0.9,4.2,2.9
		c0,0,2.1,0.6,3.9-0.6l3.9-1c-0.1-1-0.2-2.1-0.5-3.3c-0.1-0.6-0.2-1.3-0.4-1.9c0,0-0.8-2.3,0.8-7.1c0,0-0.2-6.7,1.4-8.8
		c0,0,3.2-6.5,4.4-9.8c0,0,1.6-5.9,2.4-7.5c0,0,2-7.5,2.8-9.8c0,0,4-12.8,8.3-18c0,0,1.8-2.7,2.6-7.9c0,0,2.6-10,17.5-15.5
		c0,0,9.7-6.1,11.7-10.9l-0.2-2.7c0,0,4.2-1.9,2.8-6.3c0,0-3.4-6.1,6.4-10.5c0,0,5-4.2,7.5-10.2c0,0,3.4-6.3,6.4-7.5
		c0,0,0.6-2.1,0.8-4c0,0,5.2-21.8,14.1-20.1c0,0,5.4-4.2,4-6.1c0,0-2.8-1.1-3-4.2c0,0,3.2-3.3,0.8-7.5c0,0-1.2-1.7,0-4.8
		c0,0,2.8,0.4,2.2-7.1c0,0,1.2-7.3,7-11.1c0,0,1.8,0,2.4-7.3c0,0,1.2-1.9,1.6-10.7c0,0,1.3-1.9,2.5-4.8L440.8,356.7z"/>
	<path class="st6" d="M484.9,188.3c-6.6,1.1-10.6-1.7-10.6-1.7c-7.6-4.9-12.1-4.9-12.1-4.9c0.3,6-5.1,6-5.1,6
		c2.1,3.2,0.9,3.7,0.9,3.7c-3.3,0.6-11.8-5.5-11.8-5.5c-6,0-9.7-2.6-9.7-2.6c-3,1.1-6.3-0.3-6.3-0.3s-1.2,2.3-1.2,5.2l-1.8,3.2
		l-5.1,4l-2.4,2.3v5.7L416,205l-2.7,4l0.4,1.4l0.8,2.6l-0.9,4.6l-3-1.1l-2.1-3.2V211l-3,4.6l-4.2,2.6l-1.5,4.9l6.3,5.5l4.8,2.9
		l-0.9,4.3l-2.1,2.9l-4.8,2.9l-0.3,4.6l-2.4-1.1c0,0,0.6,2,0.3,3.7c0,0-1.8,2-1.8,4.6c0,0,1.5,0.6,1.5,3.2l0.6,10.1l-3,2.3l0.6,4
		l-1.5,3.2l-1.2,7.8l-2.7,3.2c0,0,0.6,3.7-0.6,4.6c0,0-6,3.4,0.3,6.9c0,0,1.5,3.2,1.2,6c0,0,5.4,1.1,1.8,5.5c0,0-2.7,3.2-2.4,7.8
		c0,0,0.3,4.9-1.2,6.6c0,0-7,3.2-8.5,5.2c0,0-3.6-2-4.8,0.9l1.2,2l-1.2,3.4c0,0,1.8,2.6-2.7,4.9l-3.6,1.1h-8.2l-0.6,1.7
		c0,0,0.9,2-1.8,3.7c0,0-4.2,1.4,0.3,4.3l-2.1,2.9l-2.7,1.4l-3,0.8h-0.1l2.4,3.4l-0.1,0.6l-0.5,4c0,0-6.6,0.6-6.6,5.7
		c0,0,1.5,3.2,7.6,3.2l2.7,3.7l1.8,0.9l-1.5,2.3c0,0,0.5,0.5,1.1,1.3c1.2,1.6,2.8,4.5,2.8,8.4c0,0-0.9,4,5.1,4.6c0,0,6.9,1.7,8.5,4
		l1.5,1.7c0,0,3-1.4,6-1.4c0,0,3.6,2.6,3.6,6.6c0,0,3.3,2.6,2.7,4.6l3.3,1.7l3.6,2c0,0,1.8,0,1.5,2c0,0,1.8,1.7,1.2,3.7
		c0,0,4.8-0.9,5.4-3.2c0,0,5.4,0.3,5.4-2.3l-1.2-5.2c0,0-0.3-3.2,2.1-4.9c0,0,2.1-0.6,2.1-5.2c0,0,0.6-3.7,2.7-4.3V392
		c0,0,0.6-2.3,3-3.7c0,0-1.2-5.7,1.5-7.5c0,0-0.6-3.7,2.1-5.2l3.9-4l-1.2-2.3l-2.1-3.4l1.5-3.2l1.2-2l0.6-2.3l5.7-2.6l6.6,0.9l2,1.3
		c0.2-0.5,0.4-1,0.6-1.5c0.9-2.5,1.7-5.4,1.7-8.3c0,0-0.8-6.7-0.2-10.5c0,0,3.2-5.6,3.4-14.6c0,0,0-3.3,3.2-11.1c0,0,1-2.9-0.4-7.7
		c0,0,5.6-5.6,3.8-13c0,0,0-6.9,3.4-13c0,0,3.8-4.8,3.6-15.3l-1.2-0.6c0,0-0.2-7.3,5-10.3l0.6,1.9c0,0,3.2-3.4,0.2-7.7
		c0,0-8.3-6.3-2-13c0,0,7.7-5.4,5.4-14.9c0,0-1.8-5.4,5.6-7.9c0,0,1.8-1.1,3.4-4.8c0,0,6-0.8,6.8-7.7c0,0-0.2-3.4,3.4-5.2l1-6.9
		c0,0,0.1-0.2,0.3-0.5L484.9,188.3z"/>
	<path class="st7" d="M335.9,605.4c0,0-0.8-4-0.2-12.8c0,0,1-3.6,0.5-9.3l-3.9,1c-1.8,1.1-3.9,0.6-3.9,0.6c0-3.7-4.2-2.9-4.2-2.9
		c-1.8,0-4.5-2.6-4.5-2.6c-0.6,1.4-2.1,0.9-2.1,0.9c0-1.4-0.9-3.2-0.9-3.2c1.2-2.6-0.3-2.6-0.3-2.6c-6.3-3.7-1.5-6-1.5-6
		c2.4-4.9-1.8-4.9-1.8-4.9c-2.7,0-4.5-2-4.5-2c-2.1-1.1-1.2-3.2-1.2-3.2c0.9-1.4,0.3-6,0.3-6c1.5,0,6.3-1.7,6.3-1.7
		c0.3-2.9-3.6-7.2-3.6-7.2c-3-2.9-1.2-6.6-1.2-6.6c0-2.9-2.4-9.8-2.4-9.8c-3.3-4.9,0.6-9.8,0.6-9.8c1.5-2.6,0.9-6.3,0.9-6.3
		c3.3-3.4,6.3-8.3,6.3-8.3c1.2-2.3,0-4.9,0-4.9l5.1,0.6c0.9-2,4.2-2.6,4.2-2.6l2.4-2.3l6.6-1.4c-0.3-3.2,1.2-4.6,1.2-4.6l-0.3-3.7
		l1.5-3.7c0-4-6.3-5.5-6.3-5.5c-0.2-0.2-0.4-0.5-0.6-0.7c0-0.1-0.1-0.1-0.1-0.2c-0.2-0.2-0.3-0.5-0.5-0.7l0,0
		c-0.1-0.2-0.3-0.4-0.4-0.7l-0.1-0.1c-0.1-0.2-0.2-0.4-0.3-0.6c0,0,0,0,0-0.1c-0.1-0.2-0.2-0.4-0.2-0.6c0,0,0-0.1-0.1-0.1
		c-0.1-0.2-0.1-0.4-0.2-0.6v-0.1V470c0-0.1-0.1-0.2-0.1-0.3c0-0.1,0-0.1,0-0.2c0-0.2-0.1-0.3-0.1-0.5c0-0.1,0-0.1,0-0.2s0-0.2,0-0.2
		c0-0.3,0-0.6,0-0.8l0,0l-5-2.9c-3.9-0.6-4.5,4-4.5,4c-2.1,4.6-5.1,0.9-5.1,0.9c-0.3-3.2-7.9-4.9-7.9-4.9c-3.6-4-4.8-0.6-4.8-0.6
		c-2.7,4-7.2,1.7-7.2,1.7c-1.5-4-10-0.6-10-0.6c-8.2,0.3-8.2,6-8.2,6c-3.6,2.6-14.2,2-14.2,2c-4.8-0.9-4.5,5.7-4.5,5.7l-1.8,8.6
		c1.8,4.3-0.3,7.5-0.3,7.5l-1.2,4.6c-3.3,2.6-0.9,8-0.9,8c-2.7,3.2,0.6,11.5,0.6,11.5c1.2,2.3-1.8,7.8-1.8,7.8l-3.9,3.2l-0.6,3.2
		l3.6,5.1l2.8,0.9l1.8-0.2l1.4,1c0,0,3.4,3.1-2,2.5c0,0,0.4,1.3,2.4,1.5c0,0-2.4,2.1,2.2,3.6c0,0,5.4,1.9,8.5,4.2
		c0,0,1.6,2.1,6.4,2.7c0,0,9.1,9.2,12.5,13.2c0,0,4.8,4.8,4.8,10.9c0,0-1,3.3,5.2,8.6c0,0,2,5.4,2.2,8.4c0,0,0.8,5.2,4,11.3
		c0,0,0.8,3.1-1,5.4c0,0-1,1.2,2.4,4c0,0,0,1.5-3,1.1l-0.8,3.1c0,0-2.6,1-0.2,4.6l0.4,2.7c0,0,3.2,2.3,3.2,6.1c0,0-4.4,5.6,1.6,8.8
		c0,0,5.4,2.5,4-2.7c0,0,0.4-3.6,4.6-1.7c0,0,10.5,0.6,15.7,7.5c0,0,0.8,2.9,3.8,1.3c0,0,0-1.9-2.6-4.6c0,0-4.8-7.7-0.8-13.4
		c0,0,4.8-0.6,7.7-5c0,0,3.4-2.7,0.8-8.4C336.5,615.9,339.3,612.3,335.9,605.4z"/>
	<path class="st7" d="M288.7,398.3l-0.3-1.8c-3.5,4.6-7.3,0.3-7.3,0.3c-1.6-2.7-4.4-0.4-4.4-0.4c0,3.8-5.2,3.1-5.2,3.1l-4-1.5
		c-2-2.3-0.4-5.4-0.4-5.4l-2.4-5c0.8-2.3,0.4-3.4,0.4-3.4c0-3.8,2.4-3.8,2.4-3.8c1.2-5-3.2-4.2-3.2-4.2c-1.6-1.5-4.8-8-4.8-8
		c0-1.9-8.1-3.4-8.1-3.4l-12.5,0.4c-3.2-0.4-11.7,2.3-11.7,2.3l0.4,1.5l-3.6,1.5l-6.8,7.3l-4.8,0.4c0,2.3-4.4,7.3-4.4,7.3
		c-2.8,0.4-6.4-0.8-6.4-0.8l-4.8-2.3l-3.4-1.5c-0.4,0.6-1.8,2.5-3.7,2.3c0,0-1.2,2.3,3,2.3c0,0,0.4,2.7-1.6,3.1c0,0-4,1.3-2.6,6.7
		l-2,0.6c0,0,0.2,6.5-1,7.5l-0.8,1.1c0,0-0.2,2.1,1,3.1c0,0-2.2-0.4-3.4,2.3c0,0-1.2,5.2,3.4,2.5c0,0-0.6,5.7,4,5.7
		c0,0-2.8,1.3-6.4,1c0,0-3.2,0.6-5,9.8l2.6,0.4l0.9,0.1c0,0-0.6,2.1,2.8,3.3c0,0,2.2,1.3,5.8,1.3c0,0-0.4,4.8,2.4,7.1
		c0,0,6.6,4.4,7.9,10.5c0,0,1,3.3,1,5c0,0,0.1,0.4,0.2,1l2.3,0.3l3.7-0.5l1.5-0.2l6,2.7l3.6,1.9l3.6-2.3l5.6,1.9l6.4-0.4l3.2-3.1
		l4-2.3l3.2-0.4c0,0,5.2-5.7,4.4-10.3l2.4-1.1c0,0,8.1-9.6,12.9-9.6c0,0-1.6-2.7,5.6-6.1c0,0,7.7-11.1,9.7-17.2l8.5-6.5l-2.4-1.9
		L288.7,398.3z"/>
	<path class="st7" d="M359.8,377.4l-2.7-3.7c-6,0-7.6-3.2-7.6-3.2c0-5.2,6.6-5.7,6.6-5.7l0.5-4l0.1-0.6l-2.4-3.4h0.1l-4.5-3.9
		c-2.8-1.1-5.9-1.1-8.8-0.5c-0.3,0.1-0.6,0.1-0.8,0.2c-0.1,0-0.2,0-0.3,0.1c-0.2,0-0.4,0.1-0.6,0.2c-0.1,0-0.2,0-0.3,0.1
		c-0.3,0.1-0.5,0.2-0.8,0.2c-0.1,0-0.2,0-0.2,0.1c-0.2,0.1-0.4,0.1-0.6,0.2c-0.1,0-0.2,0.1-0.3,0.1c-0.2,0.1-0.4,0.1-0.6,0.2
		c-0.1,0-0.1,0.1-0.2,0.1c-0.3,0.1-0.5,0.2-0.8,0.3c-0.1,0-0.1,0-0.2,0.1h-0.1c-0.2,0.1-0.3,0.1-0.5,0.2c-0.1,0-0.2,0.1-0.3,0.1
		c-0.2,0.1-0.5,0.2-0.7,0.3c-0.1,0-0.1,0.1-0.2,0.1c-0.2,0.1-0.3,0.2-0.5,0.3c-0.1,0-0.2,0.1-0.3,0.1c-0.2,0.1-0.3,0.2-0.5,0.3
		c-0.1,0-0.1,0.1-0.2,0.1l0,0c-0.2,0.1-0.4,0.2-0.6,0.3c-0.1,0-0.1,0.1-0.2,0.1c-0.1,0.1-0.3,0.2-0.4,0.2l0,0
		c-0.1,0-0.1,0.1-0.2,0.1c-0.2,0.1-0.4,0.2-0.5,0.3c-0.1,0-0.1,0.1-0.2,0.1c-0.1,0.1-0.2,0.1-0.3,0.2c0,0,0,0-0.1,0
		c0,0-0.1,0-0.1,0.1c-0.1,0.1-0.2,0.1-0.3,0.2l0,0c0,0-0.1,0-0.1,0.1c-0.1,0.1-0.3,0.2-0.4,0.2s-0.1,0.1-0.2,0.1s-0.1,0.1-0.2,0.1
		l-0.1,0.1l0,0c-0.1,0.1-0.2,0.2-0.3,0.2l0,0c0,0-0.1,0-0.1,0.1c-0.1,0-0.1,0.1-0.2,0.1l0,0c0,0,0,0-0.1,0s-0.1,0.1-0.2,0.1l0,0
		c-0.1,0-0.1,0.1-0.1,0.1l0,0l0,0c0,0-0.1,0-0.1,0.1l0,0l0,0c-0.1,0-0.3,0-0.4,0.1c-0.1,0-0.1,0-0.2,0s-0.1,0-0.2,0
		s-0.2,0.1-0.3,0.1h-0.1c-0.1,0-0.2,0.1-0.3,0.1c0,0,0,0-0.1,0s-0.2,0.1-0.3,0.2l0,0c-0.1,0.1-0.2,0.1-0.3,0.2l0,0
		c-0.1,0.1-0.2,0.1-0.3,0.2l0,0c-0.1,0.1-0.2,0.2-0.3,0.2l0,0c-2.5,2.1-3.6,6-3.6,6c-2,4.2-7.7,6.9-7.7,6.9l-5.2,2.7l-4.4,4.2
		L300,383c-2.8,0-3.6,3.8-3.6,3.8c-0.4-2.3-6.4-1.9-6.4-1.9c-1.6,0-3.6,2.3-3.6,2.3l1.2,3.8l0.4,3.1l0.5,2.4l0.3,1.8l-2.8,3.8
		l2.4,1.9l-8.5,6.5c-2,6.1-9.7,17.2-9.7,17.2c-7.3,3.4-5.6,6.1-5.6,6.1c-4.8,0-12.9,9.6-12.9,9.6l-2.4,1.1
		c0.8,4.6-4.4,10.3-4.4,10.3l-3.2,0.4l-4,2.3l-3.2,3.1l-6.4,0.4l-5.6-1.9l-3.6,2.3l-3.6-1.9l-6-2.7l-5.2,0.8l-2.3-0.3
		c0.3,1.5,1,4.2,1.4,5.7c0,0,0.8,4,3.2,5.2c0,0,0.2,4.6,2.2,7.7c0,0,1.2,5.6,0.6,6.5c0,0,6.4,9.4,7.9,14.9l1,1l0.2-3.8l1.8,5.4
		l-2-0.2c0,0-0.6,4.2-1.8,5.6c0,0,0.2,4.4,3,6.9c0,0,5.2,5.2,6.6,7.1c0,0,10.9,10.9,4.2,6.1c0,0-9.1-9.8-9.7-9.8c0,0-0.8,1.9,4,7.1
		l10.1,10.9l8.5,5.4c0,0,2.8,2.5,3.6-1.1l1.2,0.4l0.2-0.6l-3-4.2l0.6-3.2l3.9-3.2c0,0,3-5.5,1.8-7.8c0,0-3.3-8.3-0.6-11.5
		c0,0-2.4-5.5,0.9-8l1.2-4.6c0,0,2.1-3.2,0.3-7.5l1.8-8.6c0,0-0.3-6.6,4.5-5.7c0,0,10.6,0.6,14.2-2c0,0,0-5.7,8.2-6
		c0,0,8.5-3.4,10,0.6c0,0,4.5,2.3,7.2-1.7c0,0,1.2-3.4,4.8,0.6c0,0,7.6,1.7,7.9,4.9c0,0,3,3.7,5.1-0.9c0,0,0.6-4.6,4.5-4l5,2.9l0,0
		c0-0.8,0.1-1.2,0.1-1.2c0.6-3.4-2.7-5.7-2.7-5.7c-3.6-2.9-2.4-4.9-2.4-4.9c-3-2.9-0.9-6.6-0.9-6.6c-2.1-3.2,0.6-4.9,0.6-4.9
		c2.1-2,5.1-6.3,5.1-6.3h2.7l0.3-4.9c1.2-1.7,0-4,0-4c-0.6-4.6,1.5-5.7,1.5-5.7l0.6-4v-5.5c0-2.6-1.8-3.4-1.8-3.4l3-1.4l0.6-3.2
		c5.1-2,1.8-4,1.8-4l0.9-2.9c0-2,1.8-4,1.8-4l7.9-4.6c1.5-3.2,5.4-5.7,5.4-5.7l4.2-0.3c1.8-1.4,5.1-3.7,5.1-3.7l1.5-2.3L359.8,377.4
		z"/>
	<path class="st7" d="M341.1,351.6c0,0-6.8-1.9-13.7-0.8c0,0-7.7,0.8-7.7-5.4c0,0,0.4-5-2.4-6.1l-0.4-4.2c0,0,2-2.3,2-4.2
		c0,0,2.8-1.9-3.2-3.8l-5.6-0.8l-2.4-1.5h-4l-2.8,8.4l-3.6-1.1h-8.1l-3.6-1.2c0,0,1.6-2.7-0.8-2.7l-5.6,3.1l-5.2-1.1l-4.8-1.9
		c0,0-6.8,0-6.8-5c0,0-1.6-3.4-10.9,0.4c0,0-5.6-1.2-17.7,5.4l-4.8,0.8l-1.2,5.7l-3.6-0.8l-1.6,3.8L219,342h-3.6l-3.2,3.4h-8.1
		l-8.5-0.3c-0.1,0.2-0.2,0.3-0.4,0.5c0,0-1.6,1.7,1.6,2.3c0,0,1.1,2.7-0.9,4c-0.3,0.2-0.6,0.3-1,0.4c0,0-3.2,3.3,1.4,4.2
		c0,0-1.8,1.5-1.4,3.8c0,0,1.8,2.1,1.2,3.4c0,0,1.4,0.6,1.4,4c0,0-3.6,7.7,2,8.2c0,0,0.4,1.1-2.8,0.8c0,0-4.6,0.2-2.2-8
		c0,0-1.4,2.1-1.8,3.6c0,0-2,0.2-0.4,2.7c0,0-2.4,2.5,2.8,4.6c0,0,1.2,1.7-2,0.8c0,0,0,0.1-0.1,0.2l3.4,1.5l4.8,2.3
		c0,0,3.6,1.1,6.4,0.8c0,0,4.4-5,4.4-7.3l4.8-0.4l6.8-7.3l3.6-1.5l-0.4-1.5c0,0,8.5-2.7,11.7-2.3l12.5-0.4c0,0,8.1,1.5,8.1,3.4
		c0,0,3.2,6.5,4.8,8c0,0,4.4-0.8,3.2,4.2c0,0-2.4,0-2.4,3.8c0,0,0.4,1.2-0.4,3.4l2.4,5c0,0-1.6,3.1,0.4,5.4l4,1.5
		c0,0,5.2,0.8,5.2-3.1c0,0,2.8-2.3,4.4,0.4c0,0,3.8,4.3,7.3-0.3l-0.5-2.4l-0.4-3.1l-1.2-3.8c0,0,2-2.3,3.6-2.3c0,0,6-0.4,6.4,1.9
		c0,0,0.8-3.8,3.6-3.8l3.2-3.1l4.4-4.2l5.2-2.7c0,0,5.6-2.7,7.7-6.9c0,0,1.2-3.9,3.6-6c0.8-0.7,1.7-1.2,2.8-1.3
		c0,0,6.6-5.1,14.1-6.6L341.1,351.6z"/>
	<path class="st8" d="M300.4,321l-1.2,2.7h-4l-5.6,1.1c-4.4-2.3-4-6.9-4-6.9c4.4-7.3,0-8,0-8l0.4-4.2c2,0,3.6-1.1,3.6-1.1
		c1.6-3.4-2.4-8-2.4-8c-0.9-0.9-1.7-1.9-2.3-3c-0.1-0.2-0.2-0.3-0.3-0.5c0,0,0-0.1-0.1-0.1c-0.1-0.1-0.1-0.2-0.2-0.3
		c0,0,0-0.1-0.1-0.1c-0.1-0.1-0.1-0.2-0.2-0.3c0,0,0-0.1-0.1-0.1c-0.1-0.1-0.1-0.2-0.2-0.4c0,0,0,0,0-0.1c-0.7-1.5-1-2.7-1.1-3l0,0
		c0-0.1,0-0.1,0-0.1c-3.6-2.3-8.5-0.8-8.5-0.8l-1.3-0.2l-8.3-1.3L252,284c-7.4-2.4-11.5-0.3-13.4,1.2c1.6,0.4,4.5,1.4,1.8,3
		c-0.1,0-0.1,0.1-0.2,0.1c0,0-5.4,0.4-8.9,0.2c0,0-5.6,2.1-10.5,0c0,0-7.9-1-12.3,3.4c0,0-3.4,2.1-4.8,7.1l1.8,1.1
		c0,0-1.8,1-2.4,2.7l-0.4,6.9c0,0-5-1.1-9.3,12.1l-0.6,1.7c0,0-0.8,3.1,0.4,5.9c0,0,2.2,3.8,0.8,4.4c0,0-1.4,2.1,0.6,4.2
		c0,0,2.2,0.6-0.2,1.9c0,0,0,1.5,1,1.5c0,0,1.6,0.8-0.6,1.9c0,0,1.4,0.9,0.6,2l8.5,0.3h8.1l3.2-3.4h3.6l3.2-3.4l1.6-3.8l3.6,0.8
		l1.2-5.7l4.8-0.8c12.1-6.5,17.7-5.4,17.7-5.4c9.3-3.8,10.9-0.4,10.9-0.4c0,5,6.8,5,6.8,5l4.8,1.9l5.2,1.1l5.6-3.1
		c2.4,0,0.8,2.7,0.8,2.7l3.6,1.2h4.4h3.6l3.6,1.1l2.8-8.4L300.4,321z"/>
	<polygon class="st7" points="248.3,348 247.9,350.6 251.5,354.1 253.6,359.1 260.8,359.8 263.6,357.1 274.1,351.8 274.1,349.1 
		273.3,345.7 268.9,344.9 264,345.7 260.4,345.7 254.4,345.7 248.3,346.4 	"/>
	<path class="st8" d="M287.9,177.4l3.6,5.5l3.6,3.2l4.5,0.9l8.8,5.5c4.5,0.6,8.8,2.6,8.8,2.6c0.6,3.4,6.6,1.7,6.6,1.7
		c2.7-1.7,5.1,0.3,5.1,0.3c5.1,4,5.7-4.3,5.7-4.3c0-3.7,2.1-4,2.1-4l7.9,0.6l4.8,1.7l2.7,2.3c0.3,4.3,4.8,3.2,4.8,3.2
		c1.2-2.3,5.7-4.6,5.7-4.6c2.7,1.1,7.3-2.3,7.3-2.3c0.6-2,5.1-4.6,5.1-4.6c2.1,0.9,6-2,6-2c0.3-2.3,2.1-3.7,2.1-3.7
		c2.7-3.2,4.2,0,4.2,0c0.9,1.1,2.1,1.1,2.1,1.1c0-1.7,3-4.6,3-4.6c-0.6-1.7,0.6-4,0.6-4l2.8-5.6l0,0c-0.5-2-2.4-4-3.1-4.8l0,0
		c-0.1-0.1-0.2-0.2-0.2-0.2l0,0l0,0c-2.7-2-4.2-4.9-4.2-4.9l-6,0.3l-5.1,0.6l-6.3-0.6l-3.9,1.7l-3,1.7l-4.5-3.4
		c0-3.7,2.7-3.4,2.7-3.4c4.2-2.3-1.8-5.2-1.8-5.2l2.7-4.9c1.2-1.7-4.5-4.6-4.5-4.6c-3.3-1.4-5.7-6-5.7-6l-8.8-2.3
		c-1.8-2-0.9-5.7-0.9-5.7c-3-2.3-0.3-4-0.3-4l-5.4-2v-0.4l-0.9-0.2l-3.3-1.7l-4.5-1l-2.7-0.5c-1.5,0.3-3.2,1.8-4,6.7
		c0,0-1.4,2.7-4,3.6c0,0-1.6,0.8,1.2,3.8c0,0-8.5-1.3-13.5,3.4c0,0-4.4,5-7.9,7.5c0,0-2.6,3.1-2.8,6.7c0,0-2.4,4.8-3.6,6.5
		c0,0-1.4,3.8-1.6,6.5c0,0-1.2,3.6-3.6,5.4L285,167l-1.8,1l-1.4,1.7l-0.6,0.9l3.2,2.8L287.9,177.4z"/>
	<path class="st8" d="M426.6,179.4c-2.1,0-6,2.3-6,2.3c-4.2,0-7.2-3.7-7.2-3.7c-4.2,0-4.8-2.6-4.8-2.6c0.6-2.3-1.8-7.2-1.8-7.2
		l-2.1,1.1l-4.8,1.1l-5.1,0.3l1.2-2.3c0.6-0.7,0.6-1.6,0.4-2.5l-2.8,5.6c0,0-1.2,2.3-0.6,4c0,0-3,2.9-3,4.6c0,0-1.2,0-2.1-1.1
		c0,0-1.5-3.2-4.2,0c0,0-1.8,1.4-2.1,3.7c0,0-3.9,2.9-6,2c0,0-4.5,2.6-5.1,4.6c0,0-4.5,3.4-7.3,2.3c0,0-4.5,2.3-5.7,4.6
		c0,0-4.5,1.1-4.8-3.2l-2.7-2.3l-4.8-1.7l-7.9-0.6c0,0-2.1,0.3-2.1,4c0,0-0.6,8.3-5.7,4.3c0,0-2.4-2-5.1-0.3c0,0-6,1.7-6.6-1.7
		c0,0-4.2-2-8.8-2.6l-8.8-5.5l-4.5-0.9l-3.6-3.2l-3.6-5.5l-3.6-4l-3.2-2.8l-3.6,5.2l1.6,3.3l-1.8-0.6c0,0-1.2-0.8-1.6-0.2
		c0,0-0.4,1.7-3,4.8l-0.6,2.9c0,0-4,1.1-2,4c0,0-1.8,0.4-1,2.7c0,0-1.6,0.2-1.6,4c0,0-0.6,4.2-6.4,3.4c0,0-3-1.1-3,2.1
		c0,0,8.9,0,1.4,11.3c0,0-2.2,0.6-1.5,3.4c1.6,1.2,3.7,3.2,4.2,5.2l4.4,3.8l1.2,4.2l4.8,6.5l6.4,4.6v5l4,7.7l-3.3-6.3
		c0.8-1,2.4-2,5.3-0.6c0,0,7.7,5.7,14.1,5c0,0,13.7,0.4,14.9-4.2c0,0,4.8-6.5,0.4-8.4c0,0,12.5,0.8,14.5-1.5c0,0,11.3-8.8,19.7-7.7
		c0,0,6-7.7,13.7-8c0,0,2-8.4,12.9-7.3c0,0,2-3.4,9.3-2.7c0,0,6.8-6.1,9.7-0.8c0,0,3.6,0.8,3.2-4.2c0,0,3.2-2.3,3.6,1.1
		c0,0,12.1-2.7,12.5,1.9l0.1,0.1l-0.4-1.4l2.7-4l3.6-1.4v-2.3v-3.4l2.4-2.3l5.1-4l1.8-3.2c0-2.9,1.2-5.2,1.2-5.2
		C430.2,180.3,426.6,179.4,426.6,179.4z"/>
	<path class="st8" d="M401.1,208.3c-0.4-3.4-3.6-1.1-3.6-1.1c0.4,5-3.2,4.2-3.2,4.2c-2.8-5.4-9.7,0.8-9.7,0.8
		c-7.3-0.8-9.3,2.7-9.3,2.7c-10.9-1.1-12.9,7.3-12.9,7.3c-7.7,0.4-13.7,8-13.7,8c-8.5-1.1-19.7,7.7-19.7,7.7
		c-2,2.3-14.5,1.5-14.5,1.5c4.4,1.9-0.4,8.4-0.4,8.4c-1.2,4.6-14.9,4.2-14.9,4.2c-6.4,0.8-14.1-5-14.1-5c-2.9-1.4-4.5-0.4-5.3,0.6
		l3.3,6.3v6.9l5.6,3.4l-4,4.6l-0.8,5.4l0.8,5c0,0-1.6,1.1-1.6,3.1c0,0,2,2.7,2,5c0,0,6.4-0.4,6.4,2.7c0,0-2,3.5-6.7,3.5
		c0.6,1,1.4,2.1,2.3,3c0,0,4,4.6,2.4,8c0,0-1.6,1.1-3.6,1.1l-0.4,4.2c0,0,4.4,0.8,0,8c0,0-0.4,4.6,4,6.9l5.6-1.1h4l1.2-2.7l3.2,3.8
		h4l2.4,1.5l5.6,0.8c6,1.9,3.2,3.8,3.2,3.8c0,1.9-2,4.2-2,4.2l0.4,4.2c2.8,1.1,2.4,6.1,2.4,6.1c0,6.1,7.7,5.4,7.7,5.4
		c6.8-1.1,13.7,0.8,13.7,0.8v0.7c2.9-0.6,6-0.6,8.8,0.5l4.5,3.9l3-0.8l2.7-1.4l2.1-2.9c-4.5-2.9-0.3-4.3-0.3-4.3
		c2.7-1.7,1.8-3.7,1.8-3.7l0.6-1.7h8.2l3.6-1.1c4.5-2.3,2.7-4.9,2.7-4.9l1.2-3.4l-1.2-2c1.2-2.9,4.8-0.9,4.8-0.9
		c1.5-2,8.5-5.2,8.5-5.2c1.5-1.7,1.2-6.6,1.2-6.6c-0.3-4.6,2.4-7.8,2.4-7.8c3.6-4.3-1.8-5.5-1.8-5.5c0.3-2.9-1.2-6-1.2-6
		c-6.3-3.4-0.3-6.9-0.3-6.9c1.2-0.9,0.6-4.6,0.6-4.6l2.7-3.2l1.2-7.8l1.5-3.2l-0.6-4l3-2.3l-0.6-10.1c0-2.6-1.5-3.2-1.5-3.2
		c0-2.6,1.8-4.6,1.8-4.6c0.3-1.7-0.3-3.7-0.3-3.7l2.4,1.1l0.3-4.6l4.8-2.9l2.1-2.9l0.9-4.3l-4.8-2.9l-6.3-5.5l1.5-4.9l4.2-2.6l3-4.6
		v2.3l2.1,3.2l3,1.1l0.9-4.6l-0.8-2.6l-0.1-0.1C413.2,205.7,401.1,208.3,401.1,208.3z"/>
	<path class="st8" d="M285.1,287.2c0-2.3-2-5-2-5c0-1.9,1.6-3.1,1.6-3.1l-0.8-5l0.8-5.4l4-4.6l-5.6-3.4v-6.9l-3.3-6.3l-0.7-1.4v-5
		l-6.4-4.6l-4.8-6.5l-1.2-4.2l-4.4-3.8c-0.5-2.1-2.6-4-4.2-5.2c0.1,0.4,0.2,0.8,0.5,1.2c0,0-3.4,2.7-6.4,5.2c0,0-2.2,1.5-2.4,3.3
		c0,0-2.6,1.9-2.6,4.4c0,0,0.8,2.7-1.2,5.2l3.6,0.2c0,0-6.8,1.5-7.9,6.3c0,0-6.6,0.8-5.4,5.6c0,0-3.2-1.7-4,3.8c0,0-1.6,1,0,4.4
		c0,0-0.4,1.7-2.4,1.7l0.2,2.7c0,0-2,1-3,2.9c0,0-2.4,3.3-4.2,7.3l-2.6,2.5c0,0,1,1.5,2,1.7c0,0-2.2,3.3-4.4,4.2
		c0,0-0.8,2.5,1.4,3.3c0,0-1.2,1.1,0.6,1.9c0,0,7.7,1.7,11.7,1.3c0,0,3-2.1,6.6-1.1c0,0,0.4,0.1,0.8,0.2c1.8-1.5,6-3.6,13.4-1.2
		l12.5,2.3l8.3,1.3l1.3,0.2c0,0,4.8-1.5,8.5,0.8c0,0,0.6,2.5,2.1,5.1c4.7,0,6.7-3.5,6.7-3.5C291.5,286.9,285.1,287.2,285.1,287.2z"
		/>
</g>
<circle class="st9" cx="433.6" cy="93.8" r="43.7"/>
<g>
	<path class="st10" d="M422,86.3l0.3,0.8c-2.6,1.6-7.9,3-10,3.4l-0.6-2c1.5-0.2,3.9-0.6,6.1-1.1v-8h-5.9v-1.1h5.9v-7.7h2V87
		C420.6,86.7,421.4,86.5,422,86.3z M429,89.8c-0.9,0-2.2,0-3.6,0c-2.4-0.1-2.6-0.7-2.6-3.4v-16h2V79c1.4-1,3.1-2.2,4.8-3.9l1.5,1.7
		c-2,1.4-4.6,2.6-6.3,3.3v6.1c0,1.1,0.1,1.5,1.3,1.6c0.9,0.1,2,0.1,2.8,0c1.1-0.1,1.1-0.7,1.2-4.9h0.8
		C431.9,88.6,431.9,89.7,429,89.8z"/>
	<path class="st10" d="M441.2,80h3.7v1h-11v-1h3c-0.5-1.5-1-2.9-1.5-4.2l0.7-0.4c1,1.1,2.2,2.9,2.7,4l-1.2,0.6h2.6
		c0.5-1.3,0.9-3.1,1.2-4.8l2.1,0.8C442.9,77.4,442.1,78.8,441.2,80z M444.3,74.8h-10v-1h4.6c-0.5-1.1-1.1-2.3-1.7-3.3l0.6-0.5
		c1,0.7,2.2,1.9,3.1,3l-1.2,0.7h4.6V74.8z M435.3,83h8.2v7.7h-1.9V89h-4.3v1.7h-1.9V83H435.3z M437.3,88h4.3v-4h-4.3V88z M448,86.5
		l0.2-0.8c2.6,0.6,2.9,0,2.6-2.1c-0.2-1.5-0.9-3.3-2.1-5c0.5-2,1-3.8,1.3-5.9h-2.8v18.1h-1.9V71.3l1.9,0.5h2.7l0.6-0.4l1.9,0.8
		c-1,2.9-1.7,4.5-2.7,6.4c1.6,2,2.6,3.4,3.1,5.3C453.6,87.7,450.6,88.2,448,86.5z"/>
	<path class="st10" d="M419.4,109.4l0.4,0.7c-2,1.5-4.8,3.1-7.2,4.2l-0.9-2.1c0.8-0.2,1.9-0.5,3.2-1v-7.4H412v-1h2.9v-5.4h1.9v5.4
		h2.7v1h-2.7v6.7C417.7,110.1,418.5,109.8,419.4,109.4z M429,116.5c-2,0.1-3.7,0.1-5.6,0c-2.4-0.2-3.1-0.9-3.1-3.1v-7.7l-2.2,0.8
		l-0.3-0.9c0.8-0.3,1.7-0.6,2.5-0.9v-5.5h1.9v4.7c0.7-0.3,1.4-0.5,2.1-0.8V97h1.8v5.4c0.7-0.3,1.3-0.6,2-0.8l0.4-0.5l2.1,0.5
		c-0.3,2.2-1.3,7.1-2.1,8.8l-0.8-0.2c0.3-1.8,0.6-6.4,0.6-7.7l-2.2,0.9v8.4h-1.8v-7.6c-0.7,0.3-1.4,0.6-2.1,0.8v8.3
		c0,1.1,0.6,1.4,1.7,1.5c1.8,0.1,3.1,0.1,5.1,0c1.2-0.1,1.4-0.5,1.4-5.5h0.8C432.1,115.1,432,116.3,429,116.5z"/>
	<path class="st10" d="M453.2,115.5c-1.1,0.6-2.1,0.8-4,0.9c-2.7,0.1-6.6,0.1-9.3,0c-3.4-0.1-4.5-0.2-4.5-3.7V99.1H434V98h18.5v1.1
		h-15.1v13.6c0,1.6,0.2,1.8,2.4,1.9c2.8,0.1,6.6,0.1,9.4,0c1.5-0.1,2.5-0.3,3.3-0.8L453.2,115.5z M438.7,106.9h5.8v6h-5.8V106.9z
		 M440.6,112h2.1v-4.1h-2.1V112z M449.1,105.2h-8.4v-4.8h8.4V105.2z M447.2,101.4h-4.6v2.9h4.6V101.4z M451.6,113h-5.9v-6h5.9V113z
		 M449.7,107.9h-2.2v4.1h2.2V107.9z"/>
</g>
<circle class="st11" cx="419.6" cy="388.8" r="43.7"/>
<g>
	<path class="st10" d="M417.6,382.8l-1.3,2.2c-2.9-1.3-6.2-3.8-7.8-6.3v7.2h-2v-6.4c-1.9,2.1-5.5,4.5-8.5,5.6l-0.3-0.8
		c2.6-1.2,6-3.9,7.9-6.6h-5v-6.9h5.9V369h-8v-1.2h8v-2.5h2v2.5h8.2v1.2h-8.2v1.8h5.9v6.9H409C411.1,380,414.6,381.7,417.6,382.8z
		 M402.6,373.6h4v-1.9h-4V373.6z M402.6,376.6h4v-2h-4V376.6z M408.6,371.7v1.9h4v-1.9H408.6z M412.6,374.6h-4v2h4V374.6z"/>
	<path class="st10" d="M427.2,375h3.7v1h-11v-1h3c-0.5-1.5-1-2.9-1.5-4.2l0.7-0.4c1,1.1,2.2,2.9,2.7,4l-1.2,0.6h2.6
		c0.5-1.3,0.9-3.1,1.2-4.8l2.1,0.8C428.9,372.4,428.1,373.8,427.2,375z M430.3,369.8h-10v-1h4.6c-0.5-1.1-1.1-2.3-1.7-3.3l0.6-0.5
		c1,0.7,2.2,1.9,3.1,3l-1.2,0.7h4.6V369.8z M421.3,378h8.2v7.7h-1.9V384h-4.3v1.7h-1.9V378H421.3z M423.3,383h4.3v-4h-4.3V383z
		 M434,381.5l0.2-0.8c2.6,0.6,2.9,0,2.6-2.1c-0.2-1.5-0.9-3.3-2.1-5c0.5-2,1-3.8,1.3-5.9h-2.8v18.1h-1.9v-19.5l1.9,0.5h2.7l0.6-0.4
		l1.9,0.8c-1,2.9-1.7,4.5-2.7,6.4c1.6,2,2.6,3.4,3.1,5.3C439.6,382.7,436.6,383.2,434,381.5z"/>
	<path class="st10" d="M405.4,404.4l0.4,0.7c-2,1.5-4.8,3.1-7.2,4.2l-0.9-2.1c0.8-0.2,1.9-0.5,3.2-1v-7.4H398v-1h2.9v-5.4h1.9v5.4
		h2.7v1h-2.7v6.7C403.7,405.1,404.5,404.8,405.4,404.4z M415,411.5c-2,0.1-3.7,0.1-5.6,0c-2.4-0.2-3.1-0.9-3.1-3.1v-7.7l-2.2,0.8
		l-0.3-0.9c0.8-0.3,1.7-0.6,2.5-0.9v-5.5h1.9v4.7c0.7-0.3,1.4-0.5,2.1-0.8V392h1.8v5.4c0.7-0.3,1.3-0.6,2-0.8l0.4-0.5l2.1,0.5
		c-0.3,2.2-1.3,7.1-2.1,8.8l-0.8-0.2c0.3-1.8,0.6-6.4,0.6-7.7l-2.2,0.9v8.4h-1.8v-7.6c-0.7,0.3-1.4,0.6-2.1,0.8v8.3
		c0,1.1,0.6,1.4,1.7,1.5c1.8,0.1,3.1,0.1,5.1,0c1.2-0.1,1.4-0.5,1.4-5.5h0.8C418.1,410.1,418,411.3,415,411.5z"/>
	<path class="st10" d="M439.2,410.5c-1.1,0.6-2.1,0.8-4,0.9c-2.7,0.1-6.6,0.1-9.3,0c-3.4-0.1-4.5-0.2-4.5-3.7v-13.6H420V393h18.5
		v1.1h-15.1v13.6c0,1.6,0.2,1.8,2.4,1.9c2.8,0.1,6.6,0.1,9.4,0c1.5-0.1,2.5-0.3,3.3-0.8L439.2,410.5z M424.7,401.9h5.8v6h-5.8V401.9
		z M426.6,407h2.1v-4.1h-2.1V407z M435.1,400.2h-8.4v-4.8h8.4V400.2z M433.2,396.4h-4.6v2.9h4.6V396.4z M437.6,408h-5.9v-6h5.9V408z
		 M435.7,402.9h-2.2v4.1h2.2V402.9z"/>
</g>
<circle class="st12" cx="260.6" cy="432.8" r="43.7"/>
<g>
	<path class="st10" d="M249.6,413.2v2.4h7.5v11.9c0,2.2-2.4,2.7-5.5,1l0.2-0.8c2.9,0.5,3.3,0.4,3.3-0.8v-10.3h-12.8v13.1h-2v-14.1
		h7.2v-2.4H239v-1h8.6v-2.9h2v2.9h8.7v1L249.6,413.2L249.6,413.2z M254.5,424.6h-4.9v4.4h-1.9v-4.4H243v-1h4.7v-2.2h-4.4v-1h2.9
		c-0.5-1.1-1.2-2.2-1.8-3.1l0.6-0.5c1,0.7,2.1,1.8,3,2.9l-1.1,0.7h2.5c0.5-0.9,1.2-2.5,1.5-3.7l2,1c-0.9,1.2-1.8,2.1-2.5,2.8h3.8v1
		h-4.6v2.2h4.9L254.5,424.6L254.5,424.6z"/>
	<path class="st10" d="M268.2,419h3.7v1h-11v-1h3c-0.5-1.5-1-2.9-1.5-4.2l0.7-0.4c1,1.1,2.2,2.9,2.7,4l-1.2,0.6h2.6
		c0.5-1.3,0.9-3.1,1.2-4.8l2.1,0.8C269.9,416.4,269.1,417.8,268.2,419z M271.3,413.8h-10v-1h4.6c-0.5-1.1-1.1-2.3-1.7-3.3l0.6-0.5
		c1,0.7,2.2,1.9,3.1,3l-1.2,0.7h4.6L271.3,413.8L271.3,413.8z M262.3,422h8.2v7.7h-1.9V428h-4.3v1.7h-1.9V422H262.3z M264.3,427h4.3
		v-4h-4.3V427z M275,425.5l0.2-0.8c2.6,0.6,2.9,0,2.6-2.1c-0.2-1.5-0.9-3.3-2.1-5c0.5-2,1-3.8,1.3-5.9h-2.8v18.1h-1.9v-19.5l1.9,0.5
		h2.7l0.6-0.4l1.9,0.8c-1,2.9-1.7,4.5-2.7,6.4c1.6,2,2.6,3.4,3.1,5.3C280.6,426.7,277.6,427.2,275,425.5z"/>
	<path class="st10" d="M246.4,448.4l0.4,0.7c-2,1.5-4.8,3.1-7.2,4.2l-0.9-2.1c0.8-0.2,1.9-0.5,3.2-1v-7.4H239v-1h2.9v-5.4h1.9v5.4
		h2.7v1h-2.7v6.7C244.7,449.1,245.5,448.8,246.4,448.4z M256,455.5c-2,0.1-3.7,0.1-5.6,0c-2.4-0.2-3.1-0.9-3.1-3.1v-7.7l-2.2,0.8
		l-0.3-0.9c0.8-0.3,1.7-0.6,2.5-0.9v-5.5h1.9v4.7c0.7-0.3,1.4-0.5,2.1-0.8V436h1.8v5.4c0.7-0.3,1.3-0.6,2-0.8l0.4-0.5l2.1,0.5
		c-0.3,2.2-1.3,7.1-2.1,8.8l-0.8-0.2c0.3-1.8,0.6-6.4,0.6-7.7l-2.2,0.9v8.4h-1.8v-7.6c-0.7,0.3-1.4,0.6-2.1,0.8v8.3
		c0,1.1,0.6,1.4,1.7,1.5c1.8,0.1,3.1,0.1,5.1,0c1.2-0.1,1.4-0.5,1.4-5.5h0.8C259.1,454.1,259,455.3,256,455.5z"/>
	<path class="st10" d="M280.2,454.5c-1.1,0.6-2.1,0.8-4,0.9c-2.7,0.1-6.6,0.1-9.3,0c-3.4-0.1-4.5-0.2-4.5-3.7v-13.6H261V437h18.5
		v1.1h-15.1v13.6c0,1.6,0.2,1.8,2.4,1.9c2.8,0.1,6.6,0.1,9.4,0c1.5-0.1,2.5-0.3,3.3-0.8L280.2,454.5z M265.7,445.9h5.8v6h-5.8V445.9
		z M267.6,451h2.1v-4.1h-2.1V451z M276.1,444.2h-8.4v-4.8h8.4V444.2z M274.2,440.4h-4.6v2.9h4.6V440.4z M278.6,452h-5.9v-6h5.9V452z
		 M276.7,446.9h-2.2v4.1h2.2V446.9z"/>
</g>
<ellipse transform="matrix(0.1602 -0.9871 0.9871 0.1602 22.1004 509.3759)" class="st13" cx="310.4" cy="241.7" rx="43.7" ry="43.7"/>
<g>
	<path class="st10" d="M297.3,230.5h-5.2v1.6h-2v-9.7h7.3v-4.2h2.1v4.2h7.3v9.5h-2v-1.5h-5.3v8.3h-2.1v-8.2H297.3z M297.3,229.4
		v-5.9h-5.2v5.9H297.3z M304.7,229.4v-5.9h-5.3v5.9H304.7z"/>
	<path class="st10" d="M317.9,227.9h3.7v1h-11v-1h3c-0.5-1.5-1-2.9-1.5-4.2l0.7-0.4c1,1.1,2.2,2.9,2.7,4l-1.2,0.6h2.6
		c0.5-1.3,0.9-3.1,1.2-4.8l2.1,0.8C319.6,225.3,318.8,226.8,317.9,227.9z M321,222.7h-10v-1h4.6c-0.5-1.1-1.1-2.3-1.7-3.3l0.6-0.5
		c1,0.7,2.2,1.9,3.1,3l-1.2,0.7h4.6V222.7z M312.1,230.9h8.2v7.7h-1.9V237H314v1.7h-1.9V230.9z M314,236h4.3v-4.1H314V236z
		 M324.7,234.5l0.2-0.8c2.6,0.6,2.9,0,2.6-2.1c-0.2-1.5-0.9-3.3-2.1-5c0.5-2,1-3.8,1.3-5.9H324v18.1h-1.9v-19.5l1.9,0.5h2.7l0.6-0.4
		l1.9,0.8c-1,2.9-1.7,4.5-2.7,6.4c1.6,2,2.6,3.4,3.1,5.3C330.3,235.7,327.4,236.1,324.7,234.5z"/>
	<path class="st10" d="M296.1,257.3l0.4,0.7c-2,1.5-4.8,3.1-7.2,4.2l-0.9-2.1c0.8-0.2,1.9-0.5,3.2-1v-7.4h-2.9v-1h2.9v-5.4h1.9v5.4
		h2.7v1h-2.7v6.7C294.4,258.1,295.3,257.7,296.1,257.3z M305.8,264.5c-2,0.1-3.7,0.1-5.6,0c-2.4-0.2-3.1-0.9-3.1-3.1v-7.7l-2.2,0.8
		l-0.3-0.9c0.8-0.3,1.7-0.6,2.5-0.9V247h1.9v4.7c0.7-0.3,1.4-0.5,2.1-0.8v-6.1h1.8v5.4c0.7-0.3,1.3-0.6,2-0.8l0.4-0.5l2.1,0.5
		c-0.3,2.2-1.3,7.1-2.1,8.8l-0.8-0.2c0.3-1.8,0.6-6.4,0.6-7.7l-2.2,0.9v8.4H301V252c-0.7,0.3-1.4,0.6-2.1,0.8v8.3
		c0,1.1,0.6,1.4,1.7,1.5c1.8,0.1,3.1,0.1,5.1,0c1.2-0.1,1.4-0.5,1.4-5.5h0.8C308.9,263.1,308.7,264.3,305.8,264.5z"/>
	<path class="st10" d="M330,263.5c-1.1,0.6-2.1,0.8-4,0.9c-2.7,0.1-6.6,0.1-9.3,0c-3.4-0.1-4.5-0.2-4.5-3.7V247h-1.4v-1.1h18.5v1.1
		h-15.1v13.6c0,1.6,0.2,1.8,2.4,1.9c2.8,0.1,6.6,0.1,9.4,0c1.5-0.1,2.5-0.3,3.3-0.8L330,263.5z M315.5,254.9h5.8v6h-5.8V254.9z
		 M317.3,260h2.1v-4.1h-2.1V260z M325.9,253.2h-8.4v-4.8h8.4V253.2z M324,249.4h-4.6v2.9h4.6V249.4z M328.4,260.9h-5.9v-6h5.9V260.9
		z M326.5,255.8h-2.2v4.1h2.2V255.8z"/>
</g>
<circle class="st14" cx="121.7" cy="91.7" r="43.7"/>
<g>
	<path class="st10" d="M110.5,71.6h-10.4v-1h5c-0.7-0.7-1.6-1.4-2.2-1.9l0.4-0.7c1,0.3,2.5,0.9,3.4,1.6l-0.7,1h4.6v1H110.5z
		 M119.4,86.1v1h-6.5v1.6h-1.8V76.2c-0.3,0.5-0.6,1-1,1.6l-0.6-0.4v0.9h-3.2c-0.1,0.5-0.2,1.1-0.4,1.6h4.3v7c0,1.6-1.5,2.7-4.5,0.9
		l0.2-0.8c2.2,0.4,2.5,0.1,2.5-0.7v-0.9l-1.4,0.4c-0.1-0.5-0.2-1.1-0.3-1.7c-1.3,0.7-2.7,1.1-4,1.4l-0.4-1.8c0.4,0,0.9,0,1.3,0
		c0.2-0.8,0.4-1.7,0.6-2.8h-2v7.9h-1.8v-8.9h4c0.1-0.5,0.2-1.1,0.2-1.6H101v-5.7h1.7v4.7h5.2v-1.2l-1,1c-0.3-0.5-0.9-1.2-1.5-1.8
		c-0.7,0.7-1.5,1.4-2.1,1.9l-0.5-0.6c0.6-0.6,1.3-1.3,1.8-2.1c-0.6-0.6-1.2-1.2-1.7-1.6l0.4-0.5c0.6,0.4,1.3,0.8,1.9,1.3
		c0.4-0.6,0.7-1.2,0.9-1.8l1.4,0.6c-0.2,0.6-0.7,1.2-1.3,1.9c0.6,0.5,1.2,1,1.7,1.5v-3.3h1.6v4.7c1.1-2.6,1.7-4.7,2.3-9l1.9,0.5
		c-0.3,1.6-0.7,3-1.1,4.2h6.7v1h-2.7v2.9h2.2v1h-2.2v3.4h2.2v1h-2.2v4h2.8V86.1z M105.7,80.8c-0.4,1-0.7,2-1.1,2.7
		c0.8-0.1,1.5-0.2,2.1-0.3c-0.1-0.6-0.3-1.1-0.4-1.7l0.7-0.3c0.6,0.9,1.3,2.2,1.6,3.3v-3.9h-2.9V80.8z M114.7,73.8h-1.8v2.9h1.8
		V73.8z M114.7,77.7h-1.8v3.4h1.8V77.7z M114.7,82.1h-1.8v4h1.8V82.1z M115.2,72.5c-0.2-0.8-0.7-2.8-1.1-4l0.7-0.4
		c0.9,1,1.8,2.7,2.2,3.7L115.2,72.5z"/>
	<path class="st10" d="M133,82.5h1.9V88H133v-1.2h-8.1v1.4H123v-5.6h1.9v3.2h3.2v-4.1h1.9v4.1h3V82.5z M127.2,78.9v1.3H141
		c-0.2,4.2-0.3,5.5-0.5,6.6c-0.4,2.4-2.2,2.4-5.1,0.9l0.2-0.7c2.6,0.4,2.9,0.2,3.1-1.2c0.1-0.9,0.2-2.1,0.3-4.5h-11.7v1.1h-2V70.7
		h4.4c0.4-1.1,0.5-2.2,0.6-2.8l2.6,0.6c-0.6,0.8-1.3,1.6-2,2.2h7v5.9h-10.6v1.3h14v1C141.3,78.9,127.2,78.9,127.2,78.9z M127.2,73.1
		h8.7v-1.4h-8.7V73.1z M127.2,75.6h8.7v-1.5h-8.7V75.6z"/>
	<path class="st10" d="M107.4,107.3l0.4,0.7c-2,1.5-4.8,3.1-7.2,4.2l-0.9-2.1c0.8-0.2,1.9-0.5,3.2-1v-7.4H100v-1h2.9v-5.4h1.9v5.4
		h2.7v1h-2.7v6.7C105.7,108.1,106.6,107.7,107.4,107.3z M117.1,114.5c-2,0.1-3.7,0.1-5.6,0c-2.4-0.2-3.1-0.9-3.1-3.1v-7.7l-2.2,0.8
		l-0.3-0.9c0.8-0.3,1.7-0.6,2.5-0.9V97h1.9v4.7c0.7-0.3,1.4-0.5,2.1-0.8v-6.1h1.8v5.4c0.7-0.3,1.3-0.6,2-0.8l0.4-0.5l2.1,0.5
		c-0.3,2.2-1.3,7.1-2.1,8.8l-0.8-0.2c0.3-1.8,0.6-6.4,0.6-7.7l-2.2,0.9v8.4h-1.8V102c-0.7,0.3-1.4,0.6-2.1,0.8v8.3
		c0,1.1,0.6,1.4,1.7,1.5c1.8,0.1,3.1,0.1,5.1,0c1.2-0.1,1.4-0.5,1.4-5.5h0.8C120.1,113.1,120,114.3,117.1,114.5z"/>
	<path class="st10" d="M141.2,113.5c-1.1,0.6-2.1,0.8-4,0.9c-2.7,0.1-6.6,0.1-9.3,0c-3.4-0.1-4.5-0.2-4.5-3.7V97H122v-1.1h18.5V97
		h-15.1v13.6c0,1.6,0.2,1.8,2.4,1.9c2.8,0.1,6.6,0.1,9.4,0c1.5-0.1,2.5-0.3,3.3-0.8L141.2,113.5z M126.8,104.9h5.8v6h-5.8V104.9z
		 M128.6,110h2.1v-4.1h-2.1V110z M137.2,103.2h-8.4v-4.8h8.4V103.2z M135.3,99.4h-4.6v2.9h4.6V99.4z M139.6,110.9h-5.9v-6h5.9V110.9
		z M137.8,105.8h-2.2v4.1h2.2V105.8z"/>
</g>
</svg>
