<svg width="27" height="27" viewBox="0 0 27 27" fill="none" xmlns="http://www.w3.org/2000/svg">
<path d="M3.375 23.625C3.07663 23.625 2.79048 23.5065 2.5795 23.2955C2.36853 23.0845 2.25 22.7984 2.25 22.5V4.5C2.25 4.20163 2.36853 3.91548 2.5795 3.7045C2.79048 3.49353 3.07663 3.375 3.375 3.375H11.7157L13.9657 5.625H22.5C22.7984 5.625 23.0845 5.74353 23.2955 5.9545C23.5065 6.16548 23.625 6.45163 23.625 6.75V10.125H4.5V21.3705L6.75 12.375H25.3125L22.7138 22.7734C22.6528 23.0167 22.5123 23.2326 22.3146 23.3869C22.1169 23.5412 21.8733 23.625 21.6225 23.625H3.375Z" fill="#043460"/>
</svg>
